<svg id="입" xmlns="http://www.w3.org/2000/svg" viewBox="0 0 1500 1500"><defs><style>.cls-1{fill:none;stroke:#000;stroke-linecap:round;stroke-linejoin:round;stroke-width:7px;}.cls-2{fill:#bdbaab;opacity:0.78;}.cls-3{fill:#fff;}</style></defs><title>입1</title><g id="_1" data-name="1"><path d="M596.8,793.42a3.17,3.17,0,0,1-2.85-4.57,55,55,0,0,1,74.3-24.76c9.72-9.79,25.81-13.61,41.81-9.74,15,3.63,27.74,12.63,39.48,21.53a3.18,3.18,0,0,1-3.84,5.06c-11.2-8.51-23.3-17.09-37.13-20.43-14.7-3.55-29.31.21-37.23,9.59a3.18,3.18,0,0,1-4,.71,48.63,48.63,0,0,0-67.7,20.84A3.18,3.18,0,0,1,596.8,793.42Z"/><path class="cls-1" d="M601.73,827.6a869.37,869.37,0,0,1,161.8,1.56"/><path class="cls-1" d="M603.06,875c11.05,14,27.94,20.86,44.2,28.26,6.7,3,24.92,5.82,32.28,5.59,20.51-.65,28.4-1.62,40.64-8.6,13.82-7.87,26.13-15.19,36.11-27.57"/><path class="cls-2" d="M683.14,928.8c-53.91,1.06-81.4-49.15-81.4-49.15S642.92,911.07,680,910.3c50.74-1,79.28-34.88,79.28-34.88s-16.91,52.32-72.93,53.38Z"/><path class="cls-2" d="M671.29,747c37.77-.62,61,7.32,76.85,25.37,5,5.63,4.19,7.54-3.17,4.23-8.51-3.84-18-20.08-42.28-21.14-13.83-.6-29.49,8.46-34.88,8.46-8.46,0-25.37-3-33.83-2.12-14.28,1.52-21.55,9.85-30,17.74-7,6.57-13.15,5.15-9.14-.83,12.61-18.76,33.75-31.09,72.62-31.71Z"/><path d="M596.8,793.42a3.07,3.07,0,0,1-1.4-.34,3.5,3.5,0,0,1-1.45-4.53c6.56-14.24,19-25.53,33.18-30.19a52.88,52.88,0,0,1,41.12,3.78c9.72-10.44,25.81-14.51,41.81-10.39,15,3.87,27.74,13.47,39.48,23a3.54,3.54,0,0,1,.6,4.74,3,3,0,0,1-4.44.65c-11.2-9.07-23.3-18.22-37.13-21.79-14.7-3.78-29.31.23-37.23,10.23a3,3,0,0,1-4,.75A46.79,46.79,0,0,0,629,764.82c-12.58,4.13-23.55,14.11-29.35,26.71A3.16,3.16,0,0,1,596.8,793.42Z"/><path class="cls-1" d="M601.73,827.6a869.37,869.37,0,0,1,161.8,1.56"/><path class="cls-1" d="M603.06,875c11.05,14,39.9,33.49,76.48,33.85,40.59.41,66.77-23.79,76.75-36.17"/><path class="cls-3" d="M616,788.22c-7.75,8.4-8.45,22.19,0,26.42s24.39-3.73,28.54-14.8c3.17-8.45,2.12-18-5.28-21.14C631.68,775.45,620.21,783.67,616,788.22Z"/><path class="cls-3" d="M634.41,850.93c-9.65,9.56-10.52,25.24,0,30.05s30.36-4.24,35.53-16.83c3.95-9.61,2.63-20.43-6.58-24C653.92,836.41,639.64,845.76,634.41,850.93Z"/></g></svg>