<svg id="입" xmlns="http://www.w3.org/2000/svg" viewBox="0 0 1500 1500"><defs><style>.cls-1{fill:#ff7bac;}.cls-2{fill:none;stroke:#000;stroke-linecap:round;stroke-linejoin:round;stroke-width:7px;}.cls-3{opacity:0.7;}.cls-4{fill:#fff;}</style></defs><title>입10</title><g id="_10" data-name="10"><path class="cls-1" d="M620.24,743.1c-14.75,9.07-23.71,25.75-26.4,42.85s.3,34.64,5.24,51.23a50.57,50.57,0,0,0,5.31,12.34,49.12,49.12,0,0,0,8.1,10.06,107.63,107.63,0,0,0,91.37,27c6.87-1.25,13.72-3.22,19.67-6.89,7.67-4.75,13.38-12,20.26-17.88,3.75-3.18,7.87-6,11.08-9.68a41.38,41.38,0,0,0,7.32-13.74c7.23-21,7.86-47.38-2.42-67.11-4.31-8.26-12.52-13.48-19.91-19.15a83.22,83.22,0,0,0-18.24-10.09c-8.71-3.72-17.89-6.86-27.36-6.9a34.74,34.74,0,0,0-18.91,5.26c-8.5,5.49-6.66,3.57-15.78-.49C647.1,734.38,631.75,736,620.24,743.1Z"/><path d="M598.91,773.34a3,3,0,0,1-1.39-.33,3.15,3.15,0,0,1-1.45-4.24A55,55,0,0,1,670.36,744c9.72-9.79,25.81-13.61,41.82-9.75,15,3.63,27.73,12.63,39.47,21.54a3.17,3.17,0,0,1-3.83,5.05c-11.21-8.5-23.31-17.08-37.13-20.42-14.7-3.55-29.32.21-37.23,9.58a3.16,3.16,0,0,1-4,.71,48.65,48.65,0,0,0-67.71,20.85A3.17,3.17,0,0,1,598.91,773.34Z"/><path class="cls-2" d="M603.84,807.51a869.36,869.36,0,0,1,161.8,1.57"/><path class="cls-2" d="M605.17,854.91c11.05,14,28,20.86,44.2,28.26,6.7,3.05,24.92,5.82,32.28,5.59,20.51-.66,28.4-1.62,40.65-8.6,13.81-7.87,26.13-15.19,36.1-27.57"/><path d="M598.91,773.34a2.93,2.93,0,0,1-1.39-.35,3.47,3.47,0,0,1-1.45-4.52c6.55-14.24,19-25.53,33.17-30.2a52.88,52.88,0,0,1,41.12,3.79c9.72-10.44,25.81-14.52,41.82-10.39,15,3.86,27.73,13.46,39.47,23a3.54,3.54,0,0,1,.61,4.74,3,3,0,0,1-4.44.65c-11.21-9.07-23.31-18.22-37.13-21.78-14.7-3.79-29.32.23-37.23,10.22a3,3,0,0,1-4,.76,46.77,46.77,0,0,0-38.36-4.48c-12.58,4.13-23.55,14.11-29.35,26.71A3.15,3.15,0,0,1,598.91,773.34Z"/><path class="cls-2" d="M603.84,807.51a869.36,869.36,0,0,1,161.8,1.57"/><path class="cls-2" d="M605.17,854.91c11.05,14,39.91,33.48,76.48,33.85,40.59.4,66.78-23.79,76.75-36.17"/><g class="cls-3"><path class="cls-4" d="M618.13,768.13c-7.76,8.41-8.46,22.2,0,26.43s24.39-3.73,28.54-14.8c3.17-8.46,2.11-18-5.29-21.14C633.79,755.37,622.32,763.59,618.13,768.13Z"/></g></g></svg>