<svg id="입" xmlns="http://www.w3.org/2000/svg" viewBox="0 0 1500 1500"><defs><style>.cls-1{fill:#bdbaab;opacity:0.78;}.cls-2{fill:none;}.cls-2,.cls-3{stroke:#000;}.cls-2,.cls-3,.cls-4{stroke-linecap:round;stroke-linejoin:round;stroke-width:7px;}.cls-3,.cls-4{fill:#fff;}.cls-4{stroke:#fff;}</style></defs><title>입2</title><g id="_2" data-name="2"><path class="cls-1" d="M616,755.45c9-11.5,27.61-17.55,41.25-21.11s28.06-2.84,42-.59c8.91,1.45,17.9,3.59,25.55,8.38s9.62,5.92,15.78,14.19c-17.76-12.63-38.66-12.37-58.25-4.94-11,4.15-12.81-.19-22.93-3.37C653.87,746.27,619.45,749.23,616,755.45Z"/><path class="cls-1" d="M674,870.34c13.65.73,38.91-8.47,46.62-19.76-1.57,2.29-25,4.87-27.68,5.15a125.83,125.83,0,0,1-34.44-1.19c-5.13-.9-11.39-3.78-16.41-3.58C646.6,862.44,662.52,869.72,674,870.34Z"/><path class="cls-2" d="M605.72,764.48c9.75-7.4,20.6-13.81,32.61-16.14s25.37-.07,34.46,8.11c14.74-9.49,33.87-12.89,50.46-7.22,9.44,3.23,17.87,9.87,26.19,15.38"/><path class="cls-3" d="M663.55,794.47a10.86,10.86,0,0,0-4.81,2,4.13,4.13,0,0,0-1.32,4.71,5.5,5.5,0,0,0,2.2,2.1c8.16,5,18.6,4.6,27.83,2.08,7.51-2,8.72-11.28.71-13C680.8,790.79,670.79,792.85,663.55,794.47Z"/><path class="cls-2" d="M629.36,842.09c26.82,18,71.55,19.65,99.69,3.58"/><path class="cls-4" d="M639.23,765.77a21.84,21.84,0,0,0-5.71,7.39c-.78,1.64-1.32,3.72-.3,5.21a5.3,5.3,0,0,0,2.81,1.76c3,1.08,6.17,2.1,9.31,1.63s6.25-2.88,6.58-6.18a7.79,7.79,0,0,0-2.47-6.11,19.36,19.36,0,0,0-5.6-3.53c-1.8-.84-4.26-1.48-5.44.17"/></g></svg>