<svg id="입" xmlns="http://www.w3.org/2000/svg" viewBox="0 0 1500 1500"><defs><style>.cls-1{fill:#bdbaab;opacity:0.78;}.cls-2{fill:none;}.cls-2,.cls-3{stroke:#000;}.cls-2,.cls-3,.cls-4{stroke-linecap:round;stroke-linejoin:round;stroke-width:7px;}.cls-3,.cls-4{fill:#fff;}.cls-4{stroke:#fff;}</style></defs><title>입3</title><g id="_3" data-name="3"><path class="cls-1" d="M666.75,951c4.11,1.11,11.62,2.6,15.86,2.11s10.1-1.13,13.74-3.17c8.46-4.74,17.34-10.79,22.75-18.84-3.56,5.3-31,7.22-37.6,8.06-9.82,1.25-25.32-1.9-34.83-3C654,942.28,657.56,948.51,666.75,951Z"/><path class="cls-1" d="M666.75,748.05c-9.85-5.94-15.13-7.94-26.61-8.61,10.76-6.06,19.59-4.11,31.9-5.13,12.68-1.06,27.48-1.06,40.16,4.23-7.4,2.27-16.92,4.32-23.56,8.3S673,753,666.85,748.21"/><path class="cls-2" d="M590.31,762.89C597.47,749.1,609.7,741,625,738.25c7.91-1.43,20.36-.19,28.16,1.76,6.81,1.7,17,6,21.17,12.11a1.94,1.94,0,0,0,3,.24c5.07-5.35,18.47-12.24,24.81-13.29,18.48-3.08,34.88-1.06,60,22"/><path class="cls-3" d="M662.41,794.09c19.41,1,36.06.54,55.22,3.75,2.5.42,15.77,2.27,16.74,3.56,1.62,2.14-3.67,13.77-3.93,15.05-.74,3.71-14.11,25.58-15.8,28.39-11.42,18.95-18.55,26.26-34.07,41.49-1.73,1.7-8.11,4.54-10.5,4.11-1.91-.35-6.42-4.14-7.58-5.71-10.88-14.79-16.78-24.85-26.13-40.66-6.81-11.52-13.72-29.77-12.64-43.86.65-8.42,5.68-7.9,13.31-7.52C645.85,793.14,653.6,793.63,662.41,794.09Z"/><path class="cls-2" d="M638.67,930.71c12.59,7,27.48,8.95,41.85,8s28.41-4.57,42.35-8.2"/><path class="cls-4" d="M612.59,759.81c-2.35,3.57-2.62,9,0,12.34,1.77,2.24,6.8,4.09,9.75,4.32,7,.53,18.62-.58,23-5.75a13.87,13.87,0,0,0,2.89-5.46c.54-3.27-2.77-9.23-5.79-10.91C634.7,750,617.2,752.78,612.59,759.81Z"/><path class="cls-4" d="M684.61,904.47c-1.69,2.47-2.7,5.71-1.44,8.42,1.05,2.24,3.4,3.61,5.74,4.51a39.2,39.2,0,0,0,10.83,2.3c4,.36,8.31.29,11.83-1.67a11.87,11.87,0,0,0,5.95-9.16C719.05,890.82,691.63,894.17,684.61,904.47Z"/></g></svg>