<svg id="입" xmlns="http://www.w3.org/2000/svg" viewBox="0 0 1500 1500"><defs><style>.cls-1{fill:#bdbaab;opacity:0.78;}.cls-2{fill:none;stroke:#000;}.cls-2,.cls-3{stroke-linecap:round;stroke-linejoin:round;stroke-width:7px;}.cls-3{fill:#fff;stroke:#fff;}</style></defs><title>입4</title><g id="_4" data-name="4"><path class="cls-1" d="M666.75,891.8c18,3.18,37,2.12,53.91-4.22s24.31-7.4,30.77-25.06c-32.71,14.62-70.67,19.72-104.7,8.5-3.22-1.06-23.39-12.8-25.43-10.93-2.64,2.44,9.63,19.35,12,20.91C646.67,889.69,656.88,890.06,666.75,891.8Z"/><path class="cls-1" d="M665.69,741.71c21.74-1.08,21.75-1.71,43.34,1,5.58.72,20.27,5.8,22.52,11-12.65.3-25.19-2-37.79-3.19a201.58,201.58,0,0,0-43.44.72c-2.92.37-20.29,6.82-16.34,1C636.65,748.37,661.6,741.91,665.69,741.71Z"/><path class="cls-2" d="M521.35,807.69a154.42,154.42,0,0,0,61.32-3.24c11.76-3,23.27-7.5,35.37-8.53,20.88-1.76,41.07,6.79,61.67,10.61,54.56,10.09,111.24-16.73,165.61-.85"/><path class="cls-2" d="M626.19,756.15a346.17,346.17,0,0,1,116.22,1.21"/><path class="cls-2" d="M612.27,854.12c33.58,22.27,77.56,31.55,115,16.77a175.32,175.32,0,0,0,25.1-11.82"/><path class="cls-3" d="M728,829.53c-4.48-.51-9.16-1-13.41.52s-7.91,5.71-7.25,10.18c.89,6.09,8.3,8.47,14.39,9.37,5.35.78,11,1.39,16-.78s8.67-8.11,6.53-13.07c-1.52-3.5-5.32-5.41-9-6.45A36.63,36.63,0,0,0,724,828"/><path class="cls-3" d="M723.21,772.1c-4.11-2.05-9.41,1.78-9.88,6.36s2.71,8.9,6.72,11.17,8.7,2.88,13.26,3.45,9.89.93,13.26-2.26c4.8-4.53,1.84-13.31-3.9-16.56s-12.8-2.62-19.36-1.91"/></g></svg>