<svg id="입" xmlns="http://www.w3.org/2000/svg" viewBox="0 0 1500 1500"><defs><style>.cls-1{fill:#ffede9;}.cls-1,.cls-3{stroke:#000;}.cls-1,.cls-4{stroke-miterlimit:10;}.cls-1,.cls-3,.cls-4{stroke-width:7px;}.cls-2{fill:#ddbfba;}.cls-3{fill:none;}.cls-3,.cls-5{stroke-linecap:round;stroke-linejoin:round;}.cls-4,.cls-5{fill:#fff;stroke:#fff;}.cls-5{stroke-width:5px;}</style></defs><title>입6</title><g id="_6" data-name="6"><path class="cls-1" d="M708.28,755.17c-55.8.48-113.26-3-164.75,16.37-16.3,6.13-33.83,16.92-34.27,32.88-.2,7.5,3.66,14.74,9.06,20.46,9.39,10,23,15.81,36.66,20.21,30.51,9.84,62.94,13.83,95.24,15.95,58.71,3.85,118.58,1.58,174.88-13.81,18.5-5.05,51.78-19.28,56.29-36.25,7.4-27.83-29.91-42.41-55.94-49.11C787.17,752,747.78,754.83,708.28,755.17Z"/><path class="cls-2" d="M651.18,823c-7.71-2.87-15.9-7.11-17.92-13.84-.56-1.88-1.37-1.79-.52-3.59,1.3-2.76,4.48-5,7.89-5.78,28.77-6.35,72.23-8.22,105.93-1.35,35.1,7.15-22,29.23-36.55,30.44C690.72,830.5,669.35,829.79,651.18,823Z"/><path class="cls-3" d="M572.1,803.36c28.8-1.23,54.07-1,81.71-.93,1.91,0,4,.05,5.51,1,1.88,1.19,7.66,6.37,9.43,7.45,10.56,6.4,21.14,6.66,33.88,5.44,10.6-1,10.6-1,21.24-6.25,4.21-2.08,6.39-2.3,10.86-4.26,3.63-1.59,10.09-1.84,14.16-2,26-1.24,37.55-.84,66.23.76"/><path class="cls-4" d="M573.13,780.93c-.56,1.49.19,3.23.91,4.65a7.9,7.9,0,0,0,4.73,3.87c4.15.9,8.46,2.08,12.66,1.4,4.61-.75,11-1.15,13.17-5.3,4-7.72-1.3-12-10.12-12.28C586.57,773,576,773.31,573.13,780.93Z"/><path class="cls-5" d="M796.58,816.65A50.92,50.92,0,0,0,780.35,820c-5.12,2.15-9.78,5.76-12.32,10.69a5.4,5.4,0,0,0,2.37,8.17c7.81,4.85,17.88,3.42,26.85,1.3,6.63-1.58,13.27-3.47,19.16-6.91,2.82-1.65,5.71-4.15,5.69-7.41C822.05,816.63,802.57,816.23,796.58,816.65Z"/></g></svg>