<svg id="입" xmlns="http://www.w3.org/2000/svg" viewBox="0 0 1500 1500"><defs><style>.cls-1{fill:none;stroke:#000;stroke-linejoin:round;stroke-width:7px;}.cls-1,.cls-3{stroke-linecap:round;}.cls-2{fill:#fff;}.cls-3{fill:#999;stroke:gray;stroke-linejoin:bevel;stroke-width:6px;}</style></defs><title>입7</title><g id="_7" data-name="7"><path class="cls-1" d="M624,994.06c-4.32,1.86-6.9,3.82-9,6.62-6,8-4.83,22.3,3.58,27.79,11.68,7.62,18.37,8.68,29.65,11.63"/><path class="cls-1" d="M660.85,734.25a125.32,125.32,0,0,0,30.35,3.87"/><path class="cls-2" d="M776.3,776.53c15.71,74.58,9.37,131.66,9.48,203.19-17.64-.74-34.25,7.62-51.51,11.38s-35.09,2.89-52.71,2c-15.6-.78-29.1-2.61-44.7-3.39l-.23-.14c-2.87-71.25-10.39-149.06-13.27-220.32l.11-2c10.46.56,21.27-.63,31.72-1.74q44.1-4.68,88.51-5.68c4-.08,24.07-.06,27.27,2.26C773.64,764,775.62,773.31,776.3,776.53Z"/><path class="cls-1" d="M635.77,734a41.51,41.51,0,0,0-40.5,7.09c-2.65,2.23-5.13,5.09-5.39,8.54-.39,5.32,4.54,9.47,9.34,11.8,7.61,3.71,15.81,5.31,24.25,5.75,10.46.56,21.27-.63,31.72-1.74q44.1-4.68,88.51-5.68c4-.08,24.07-.06,27.27,2.26,2.67,1.92,4.65,11.25,5.33,14.47,15.71,74.58,9.37,131.66,9.48,203.19-17.64-.74-34.25,7.62-51.51,11.38s-35.09,2.89-52.71,2c-15.6-.78-29.1-2.61-44.7-3.39"/><path class="cls-1" d="M623.36,769.26c2.88,71.26,10.4,149.07,13.27,220.32"/><path class="cls-3" d="M772.06,979.63q1.8-73.36-2.7-146.72"/><path class="cls-3" d="M757.73,981A1183.23,1183.23,0,0,1,755,845.3"/><path class="cls-3" d="M740.74,986.13l-5.76-115"/><path class="cls-3" d="M723.55,989.25q-.85-21.39-2.41-42.73"/><path class="cls-3" d="M707.53,993.41l-4.3-100.52"/><path class="cls-1" d="M635.77,734a41.51,41.51,0,0,0-40.5,7.09c-2.65,2.23-5.13,5.09-5.39,8.54-.39,5.32,4.54,9.47,9.34,11.8,7.61,3.71,15.81,5.31,24.25,5.75,10.46.56,21.27-.63,31.72-1.74q44.1-4.68,88.51-5.68c4-.08,24.07-.06,27.27,2.26,2.67,1.92,4.65,11.25,5.33,14.47,15.71,74.58,9.37,131.66,9.48,203.19-17.64-.74-34.25,7.62-51.51,11.38s-35.09,2.89-52.71,2c-15.6-.78-29.1-2.61-44.7-3.39"/><path class="cls-1" d="M623.36,769.26c2.88,71.26,10.4,149.07,13.27,220.32"/></g></svg>