<svg id="입" xmlns="http://www.w3.org/2000/svg" viewBox="0 0 1500 1500"><defs><style>.cls-1{fill:#bdbaab;opacity:0.78;}.cls-2{fill:none;}.cls-2,.cls-3{stroke:#000;}.cls-2,.cls-3,.cls-4{stroke-linecap:round;stroke-linejoin:round;stroke-width:7px;}.cls-3,.cls-4{fill:#fff;}.cls-4{stroke:#fff;}</style></defs><title>입8</title><g id="_8" data-name="8"><path class="cls-1" d="M644.33,940.92c22.08,16,43.22,17.57,70.39,20.17,11.07,1.06,22.75.79,32.61-4.35s22.56-7.86,20.31-18.75c-2.21,1.58-4.42,0-6.64,1.57-3.46,2.48-7,2.85-10.85,4.58-8.22,3.63-17.53,6.74-26.53,6.62s-18,1.86-27.07,1.73c-13-.18-26.61-.51-38.1-6.65"/><path class="cls-1" d="M676,734.14a108,108,0,0,1,25.78.75c2.47.37,5.53,1.48,5.62,4-5.75,3.31-12.89,2.45-19.46,1.49l-12.74-1.86c-2.74-.4-9.5-.18-11.43-2.12C667.39,734.8,672,734.5,676,734.14Z"/><path class="cls-2" d="M607.15,758.42c16.79-15.8,42.45-22.61,65.37-17.33,4.85,1.11,9.64,2.73,14.63,2.76,4.21,0,8.34-1.08,12.45-2,29.63-6.37,61.89-.63,87,15.48"/><path class="cls-3" d="M669.45,787.7c59.33,1.88,116.73-4.88,173-1.87a4.62,4.62,0,0,1,2.75,8.1c-38.52,33.69-84.8,68.7-132.31,105.3a24.16,24.16,0,0,1-27.57,1.33c-33.79-21.16-66.29-40.37-99-67.8-8.49-7.12-22.58-23.78-29.78-32.27-10.84-12.8,2-13.89,16.08-13.21C600.22,788.61,641.88,786.83,669.45,787.7Z"/><path class="cls-2" d="M637.41,938c41.33,18.52,90.86,17.69,131.55-2.2"/><path class="cls-4" d="M725.23,766.1c8.23,7.63,21.94,8.42,31,1.79,1.11-.81,2.25-1.9,2.26-3.28a4.16,4.16,0,0,0-.84-2.27c-4.13-6.3-14.72-9.54-22-10.23C727.82,751.36,717,758.44,725.23,766.1Z"/><path class="cls-4" d="M737.22,927.59a17.13,17.13,0,0,0,11.8,1.7,36.8,36.8,0,0,0,11.25-4.52,27.37,27.37,0,0,0,8.35-6.62c9.68-12.53-12.29-30.24-24.5-24.77C732.44,898.6,723.62,919.57,737.22,927.59Z"/></g></svg>