<svg xmlns="http://www.w3.org/2000/svg" xmlns:xlink="http://www.w3.org/1999/xlink" viewBox="0 0 1500 1500"><defs><style>.cls-1,.cls-15,.cls-4{fill:none;}.cls-2{isolation:isolate;}.cls-3{fill:#fdf3c2;}.cls-4{stroke:#000;stroke-linecap:round;stroke-linejoin:round;stroke-width:7px;}.cls-11,.cls-5{opacity:0.75;}.cls-5{fill:url(#무제_그라디언트_15);}.cls-6{opacity:0.69;}.cls-7{clip-path:url(#clip-path);}.cls-8{opacity:0.27;}.cls-9{opacity:0.7;}.cls-10{clip-path:url(#clip-path-2);}.cls-11,.cls-12,.cls-13{fill:#544f3c;}.cls-13{opacity:0.77;}.cls-14{fill:#ccc;mix-blend-mode:multiply;}.cls-15{stroke:#ccc;stroke-miterlimit:10;}</style><radialGradient id="무제_그라디언트_15" cx="718.55" cy="742.76" r="442.89" gradientUnits="userSpaceOnUse"><stop offset="0"/><stop offset="0" stop-color="#fdf39e"/><stop offset="0.25" stop-color="#fdf39f" stop-opacity="0.99"/><stop offset="0.38" stop-color="#fdf3a2" stop-opacity="0.96"/><stop offset="0.49" stop-color="#fdf4a7" stop-opacity="0.9"/><stop offset="0.59" stop-color="#fdf5af" stop-opacity="0.83"/><stop offset="0.68" stop-color="#fef6b8" stop-opacity="0.73"/><stop offset="0.76" stop-color="#fef8c4" stop-opacity="0.6"/><stop offset="0.83" stop-color="#fefad3" stop-opacity="0.46"/><stop offset="0.9" stop-color="#fefce3" stop-opacity="0.29"/><stop offset="0.96" stop-color="#fffef5" stop-opacity="0.1"/><stop offset="1" stop-color="#fff" stop-opacity="0"/></radialGradient><clipPath id="clip-path"><path class="cls-1" d="M414.12,1193.58c-14.79-8.45-26.51-47.83-8.45-58.66,10.57-6.34,29.65-10.91,50.73-7.4,12.69,2.11,22.47-27.94,31.72-50.21,11.62-28,63.12-24.53,100.41-15.85,61.31,14.27,337.72,21.52,428.09-124.2,84.57-136.36,78.95-198.84,105.71-214.58,18-10.57,33.82-13.74,52.85-15.85,29.71-3.31,56,18,56,18l86.67,130,25.37,386.34L1186.8,1414.5,449,1373.28l-34.89-149Z"/></clipPath><clipPath id="clip-path-2"><path class="cls-1" d="M200.4,592.93c-11.68-11.58-19.94-29.39-16-38,6.28-13.77,24.11-18.27,41.58-6.67,23.65,15.7,23,40.23,23,40.23s21.37,41.16,45.68,53.71c19.55,10.09,42.19,9.67,46.51,31.85,3.44,17.67-18.75,33.57-21.05,64.76-1.46,19.89-74.89-38.26-74.89-38.26Z"/></clipPath></defs><title>기본1</title><g class="cls-2"><g id="기본"><path class="cls-3" d="M1302.55,646.05c23.65,11,35.94,37,31.71,65.53-7.21,48.66-47.57,50.74-62.37,47.57-29.59-6.34-38.05-32.77-38.05-32.77-9.37-5.2-34.88-9.51-48.62-9.51,0,0,2.11,75-13.74,145.87-17.76,79.32-60.25,138.47-67.65,148,14.8,10.57,40.16,15.85,57.66,5.61,15.21-8.9,24.54-3,26.9-1.38,14.33,9.73,21.44,24.63,26.43,41.22s3.09,39.06-4.78,54.49c-13.19,25.84-35.25,23.9-42.11,21.28-10.19-3.89-17.59-21.86-17.59-21.86-45.45,16.91-72.94,9.51-118.58-15.06,0,0-112.91,84.82-275.69,77.42-123.79-5.62-227.26-55-240.85-63.39,0,0-13.89,13.71-20.73,37.49-4,14-11.5,32.68-25.93,34.36-10.81,1.26-29.13-3.4-32.77-4.23-23.25-5.28-23.25-5.28-41.22-8.46-52.09-9.19-39.11-44.39-33.71-51,5.09-6.19,10-8.45,14.74-10.66,8.4-3.91,22.14-6.77,40.06-7.4,3.39-21.37,9.11-42.7,18.28-62.31-38.7-30.66-81.85-89-104.91-173.09-18-65.53-13.74-140.58-7.4-174.4,0,0-32.74-5.27-55-27.49s-32.73-57.32-32.73-57.32-22.24.24-37-11.38c-19.18-15.07-32.62-53.93-1.06-89.85,30.65-34.88,69.76-26.43,85.62-12.68,25.57,22.16,9.51,56,9.51,56,4.23,11.63,21.14,44.39,49.42,48.26,39-101.87,100.52-181.09,227.52-237.69,102.91-45.87,221.87-47.56,330.17-16.45,116.95,33.58,199.52,124.87,239.56,196.36,14.8,26.43,28,55.5,32.24,84,34.79,10.17,53.38,15.32,81.92,31.18C1268.72,640.76,1286.69,638.65,1302.55,646.05Z"/><path class="cls-4" d="M1271.89,759.15c14.8,3.17,55.16,1.09,62.37-47.57,4.23-28.54-8.06-54.5-31.71-65.53-15.86-7.4-33.83-5.29-50.74,6.34-28.54-15.86-47.13-21-81.92-31.18-4.23-28.54-17.44-57.61-32.24-84-40-71.49-122.61-162.78-239.56-196.36-108.3-31.11-227.26-29.42-330.17,16.45C440.92,413.86,379.39,493.08,340.4,595c-28.28-3.87-45.19-36.63-49.42-48.26,0,0,16.06-33.86-9.51-56-15.86-13.75-55-22.2-85.62,12.68-31.56,35.92-18.12,74.78,1.06,89.85,14.79,11.62,37,11.38,37,11.38s10.53,35.13,32.73,57.32,55,27.49,55,27.49c-6.34,33.82-10.57,108.87,7.4,174.4,23.06,84.07,66.21,142.43,104.91,173.09-9.17,19.61-14.89,40.94-18.28,62.31-17.92.63-31.66,3.49-40.06,7.4-4.74,2.21-9.65,4.47-14.74,10.66-5.4,6.57-18.38,41.77,33.71,51,18,3.18,18,3.18,41.22,8.46,3.64.83,22,5.49,32.77,4.23,14.43-1.68,21.9-20.4,25.93-34.36,6.84-23.78,20.73-37.49,20.73-37.49,13.59,8.43,117.06,57.77,240.85,63.39,162.78,7.4,275.69-77.42,275.69-77.42,45.64,24.57,73.13,32,118.58,15.06,0,0,7.4,18,17.59,21.86,6.86,2.62,28.92,4.56,42.11-21.28,7.87-15.43,9.76-37.89,4.78-54.49s-12.1-31.49-26.43-41.22c-2.36-1.6-11.69-7.52-26.9,1.38-17.5,10.24-42.86,5-57.66-5.61,7.4-9.51,49.89-68.66,67.65-148,15.85-70.82,13.74-145.87,13.74-145.87,13.74,0,39.25,4.31,48.62,9.51C1233.84,726.38,1242.3,752.81,1271.89,759.15Z"/><circle class="cls-5" cx="718.55" cy="742.76" r="442.89"/><g class="cls-6"><g class="cls-7"><g class="cls-8"><path d="M1301,642.88c23.66,11,35.94,37,31.71,65.53-7.21,48.66-47.56,50.74-62.36,47.57-29.6-6.34-38-32.77-38-32.77-9.38-5.2-34.89-9.51-48.63-9.51,0,0,2.12,75-13.74,145.87-17.76,79.31-60.25,138.46-67.65,148,14.8,10.57,40.17,15.85,57.66,5.61,15.21-8.9,24.55-3,26.9-1.38,14.34,9.73,21.44,24.62,26.43,41.22s3.1,39.06-4.78,54.49c-13.19,25.84-35.25,23.9-42.11,21.28-10.19-3.89-17.59-21.86-17.59-21.86-45.45,16.91-72.93,9.51-118.57-15.06,0,0-112.92,84.82-275.7,77.42-123.78-5.62-227.26-55-240.85-63.39,0,0-13.89,13.71-20.73,37.48-4,14-11.5,32.69-25.93,34.37-10.81,1.26-29.13-3.41-32.76-4.23C411,1168.21,411,1168.21,393,1165c-52.09-9.19-39.11-44.39-33.7-51,5.08-6.18,10-8.44,14.73-10.65,8.4-3.91,22.14-6.78,40.06-7.4,3.39-21.37,9.11-42.7,18.29-62.31-38.71-30.66-81.86-89-104.91-173.09-18-65.53-13.74-140.58-7.4-174.41,0,0-32.75-5.26-55-27.48s-32.72-57.32-32.72-57.32-22.24.24-37-11.38c-19.17-15.07-32.62-53.93-1.06-89.85,30.66-34.88,69.77-26.43,85.62-12.68,25.57,22.16,9.52,56,9.52,56,4.22,11.62,21.14,44.39,49.41,48.26,39-101.87,100.52-181.09,227.52-237.69,102.92-45.88,221.87-47.56,330.17-16.45,117,33.58,199.53,124.87,239.57,196.36,14.8,26.43,28,55.5,32.24,84,34.78,10.17,53.38,15.32,81.92,31.18C1267.14,637.59,1285.11,635.48,1301,642.88Z"/></g></g></g><path class="cls-1" d="M197.44,592.67C185.81,581,177.35,562,181.58,553.56s21.14-18,37-4.23,18,21.14,25.36,35.94,27.49,52.85,45.46,65.53,41.22,9.52,40.16,27.49-9.08,41.22-13,60.77-74.74-38.58-74.74-38.58Z"/><g class="cls-9"><g class="cls-10"><g class="cls-8"><path d="M1306.25,641.69c23.71,10.93,36.1,36.84,32,65.4-7,48.68-47.35,50.93-62.17,47.82-29.62-6.22-38.19-32.6-38.19-32.6-9.39-5.17-34.92-9.37-48.66-9.31,0,0,2.43,75-13.13,145.92-17.42,79.39-59.67,138.72-67,148.26,14.84,10.51,40.23,15.69,57.68,5.38,15.18-9,24.54-3.09,26.9-1.5,14.37,9.67,21.54,24.54,26.6,41.11s3.26,39-4.55,54.51c-13.09,25.9-35.15,24-42,21.45-10.2-3.84-17.68-21.78-17.68-21.78-45.38,17.1-72.89,9.82-118.63-14.57,0,0-112.56,85.3-275.37,78.58-123.81-5.11-227.49-54-241.11-62.38,0,0-13.84,13.77-20.57,37.57-4,14-11.37,32.73-25.79,34.47-10.81,1.3-29.15-3.28-32.78-4.09-23.28-5.19-23.28-5.19-41.26-8.29-52.13-9-39.3-44.23-33.92-50.82,5.05-6.21,10-8.49,14.69-10.72,8.38-3.95,22.11-6.87,40-7.57,3.3-21.38,8.93-42.74,18-62.38-38.83-30.51-82.23-88.68-105.63-172.65C315.42,798,319.33,723,325.53,689.12c0,0-32.77-5.12-55.08-27.25s-33-57.18-33-57.18-22.24.33-37.09-11.23c-19.23-15-32.84-53.8-1.43-89.84,30.51-35,69.65-26.72,85.56-13.05,25.67,22.06,9.75,56,9.75,56,4.28,11.61,21.33,44.31,49.62,48.06,38.57-102,99.76-181.51,226.53-238.64,102.71-46.3,221.66-48.48,330.09-17.83,117.09,33.1,200,124,240.39,195.36,14.9,26.37,28.24,55.38,32.59,83.9,34.82,10,53.44,15.1,82,30.84C1272.41,636.54,1290.37,634.35,1306.25,641.69Z"/></g></g></g><circle class="cls-11" cx="1022.44" cy="495.95" r="4.76"/><circle class="cls-12" cx="653.01" cy="411.92" r="5.29"/><circle class="cls-12" cx="480.72" cy="844.24" r="5.29"/><circle class="cls-13" cx="608.09" cy="1009.66" r="3.7"/><path class="cls-14" d="M451.28,1325.41c-19.71-4.09-42.75-12-47.56-31.58-3.24-13.19,3.87-27.25,14.43-35.8s24-12.59,37.19-15.79c62.84-15.25,128.2-15.6,192.87-15.87l290.94-1.23c48.2-.2,142.46-11.86,184.4,16.66,45.66,31-20.28,61.66-48,66.29-131.59,22-264.85,40.08-398.51,39.52C601.33,1347.3,525.51,1340.8,451.28,1325.41Z"/><path class="cls-15" d="M451.28,1325.41c-19.71-4.09-42.75-12-47.56-31.58-3.24-13.19,3.87-27.25,14.43-35.8s24-12.59,37.19-15.79c62.84-15.25,128.2-15.6,192.87-15.87l290.94-1.23c48.2-.2,142.46-11.86,184.4,16.66,45.66,31-20.28,61.66-48,66.29-131.59,22-264.85,40.08-398.51,39.52C601.33,1347.3,525.51,1340.8,451.28,1325.41Z"/></g></g></svg>