<svg id="눈" xmlns="http://www.w3.org/2000/svg" viewBox="0 0 1500 1500"><defs><style>.cls-1{fill:#fff;}.cls-1,.cls-2{stroke:#000;stroke-linecap:round;stroke-linejoin:round;stroke-width:7px;}.cls-2{fill:#b3b3b3;}</style></defs><title>눈1</title><g id="_15" data-name="15"><path class="cls-1" d="M770.12,572a135.22,135.22,0,0,0-44.58,21.86C712.9,603.35,704.22,617,702.86,632c-2.2,24.27,17.35,46,39.46,59.12,44.34,26.41,102.25,29.53,151.94,13.44,16.58-5.36,32.72-12.93,44.9-24.65s20-28.07,17.94-44.25c-2.62-20.39-18.84-37.61-37.14-49.11C874.46,558,800.46,564,770.12,572Z"/><path class="cls-1" d="M673.09,644.89c.45,28-25,52.32-53.25,66.84s-62.71,19.55-96.23,17.38c-31.09-2-63.66-11.07-83.38-31.61-22.87-23.84-22.79-59.5-3.93-84.76s53.73-40.29,89.55-43.36,74.81.21,105.4,17.78C658.71,602.93,672.61,615,673.09,644.89Z"/><path class="cls-2" d="M517.73,599c-7.58,6-11.37,10.85-13.89,15.67-1.65,3.15-2.53,4.83-3.79,10.86a24.33,24.33,0,0,0,3.75,17.19C510.62,653,526.57,656.9,538,659.37a109.63,109.63,0,0,0,27.09,2,97.42,97.42,0,0,0,13.3-2.05c2.45-.5,11.71-3.26,14.09-4,9.91-3.2,21.27-12.85,23.38-25.74,1.91-11.65-3.8-23.68-13.23-31.28C581.49,581.26,537,583.7,517.73,599Z"/><path class="cls-2" d="M758.31,617.72c-2.9,6-4.69,12.85-2.91,19.25,2.43,8.79,11.3,15.19,20.86,17.64s14,4.75,23.93,5.2c17,.78,16.18.3,20.81,0a91.28,91.28,0,0,0,15.51-2.63c10.79-2.93,23.39-9.35,29.55-21.58s3-27.84-7.49-37.26C828.07,571,774.71,583.58,758.31,617.72Z"/></g></svg>