<svg id="눈" xmlns="http://www.w3.org/2000/svg" viewBox="0 0 1500 1500"><defs><style>.cls-1{fill:#fff;}.cls-1,.cls-2,.cls-3{stroke:#000;stroke-linecap:round;stroke-linejoin:round;stroke-width:7px;}.cls-3{fill:none;}</style></defs><title>눈10</title><g id="_6" data-name="6"><path class="cls-1" d="M757.68,601.92c-11,15.62-17.3,37-8.86,54.2,3.09,6.31,7.92,11.58,13.25,16.07,13.26,11.16,30.58,18,47.65,16,18.65-2.12,35.73-15.12,43.12-32.76a57.09,57.09,0,0,0-6.45-54.56C823.22,569.34,779.74,570.73,757.68,601.92Z"/><path class="cls-1" d="M518.58,621.32c-6.2,12.71-7.32,27.38-4.54,41.14,1.37,6.78,3.71,13.48,7.85,19.14a44.93,44.93,0,0,0,12.8,11.45c22.12,13.63,54,10.54,72.78-7.06s22.54-47.93,8.58-69.21C592.84,581.38,537.21,583.06,518.58,621.32Z"/><path class="cls-2" d="M608.23,684.37c-7,6-16,9.21-24.86,11.9-6.77,2.06-13.7,3.93-20.78,4s-14.41-1.85-19.68-6.56c-5.44-4.86-8.18-12.33-8.06-19.63s2.93-14.37,7.08-20.36a43.48,43.48,0,0,1,18.16-15.18,36.26,36.26,0,0,1,23.43-2,49.77,49.77,0,0,1,12.73,5.69,41,41,0,0,1,10.45,8.22,33,33,0,0,1,6.09,11.2,22.45,22.45,0,0,1,1.35,8.87c-.55,6.54-5.26,11.88-9.72,16.7"/><path class="cls-2" d="M776.85,625.07c5.26-3.09,11.31-5.27,17.44-4.87,5.44.35,12.86.38,17.72,2.79a76.19,76.19,0,0,1,14.41,9.65c9.15,7.75,11.32,21.26,9.86,32.94-2.19,17.64-15.72,19-31.17,18.9-9.36-.09-20.39.72-28.93-3.74C752.71,668.47,755.74,637.52,776.85,625.07Z"/><path class="cls-3" d="M728.36,567.26a1372.21,1372.21,0,0,1,142-41.55"/><path class="cls-3" d="M519,542.12a692.42,692.42,0,0,1,114.68,39.6"/><path class="cls-3" d="M662.72,588.53a64.15,64.15,0,0,0,4.72-13.61"/><path class="cls-3" d="M699.38,586.3l1.19-15.49"/></g></svg>