<svg id="눈" xmlns="http://www.w3.org/2000/svg" viewBox="0 0 1500 1500"><defs><style>.cls-1{fill:none;}.cls-1,.cls-2{stroke:#000;stroke-linecap:round;stroke-linejoin:round;stroke-width:7px;}</style></defs><title>눈11</title><g id="_5" data-name="5"><path class="cls-1" d="M464.33,654.5c53.91,5.29,118.1,15,170.76,22.85l.65.1"/><path class="cls-1" d="M759.51,683.1c62.94-.44,126.14-1.17,188.94,3.11"/><path class="cls-2" d="M750.24,605.93Q859,576.7,969.59,555a588,588,0,0,1,4.28,79.26q-53.48,6.16-107,12.2c-15.8,1.79-31.69,3.56-47.57,2.85-18.55-.83-37.85-1.64-56.24-3.09-12.47-1-9.55,3-12-10.29C749.44,626.49,750.53,615.54,750.24,605.93Z"/><path class="cls-2" d="M657.1,602.17C623.28,587.42,482.19,535.93,479,541.83l-30.33,56.32a6.22,6.22,0,0,0,2.41,8.32c5.58,3.53,12.84,5.29,19.71,6.83,44.74,10,89.38,21.49,134.51,30.16C618.15,645.93,630,651,643,652.1A248.18,248.18,0,0,0,657.1,602.17Z"/><path class="cls-1" d="M757.58,701.74l19.36,8.84"/><path class="cls-1" d="M587,702.17l22.72-6.24"/></g></svg>