<svg id="눈" xmlns="http://www.w3.org/2000/svg" viewBox="0 0 1500 1500"><defs><style>.cls-1{fill:none;stroke:#000;stroke-linecap:round;stroke-linejoin:round;stroke-width:7px;}</style></defs><title>눈12</title><g id="_4" data-name="4"><path class="cls-1" d="M773.4,668.27c36.66,3.66,79.92,9.52,116,16.14C856.11,678.29,808.29,667.09,775,661c31.74,1.11,82.73,12.53,114.47,13.65-40.53-4.38-72.8-14.16-112.85-21,31.11,1.24,50.8,1.5,84.85,2.85,9.33.37,22.63,2.35,30.56,6.62-32.43-1.55-82.28-12.66-112.38-23,34.8-6.45,82.65,11.51,118,8.8-36.23-.15-70.44-6.86-105.26-15.09-2-.46-14.53-4.09-13.61-5.73,38.24,1.59,86.2,5,124.45,6.58C863.93,630.75,814.79,627,778.3,614c39.43,2.07,87.34,10.26,126.77,12.33-36.87-4.05-72.33-15-108.83-20.88-.85-.13-12.28-2.86-12.15-3.63"/><path class="cls-1" d="M517.66,688.64c-2.34.59,77.52-16.49,110.15-22.18-29.51,2.24-87,4.46-116.56,4.87,28.85-3.48,86.94-9.37,115.13-16.41-31,2.33-85.46,3.59-116.43,5.92C544.84,650.12,593,658,624.43,639.19a505.38,505.38,0,0,1-115.65,12.2c39.79-4.57,80.72-12.69,119.85-21.24-38.1,3.6-85.35,9.45-121.8,5.51,35.83-2.8,82.89-9.12,117.51-18.74-39.6,2.47-79.08,6-118.68,8.45,16.1-2.07,31.95-6.24,48.05-8.32,23.94-3.08,47.94-6.17,71.44-11.7-1.75.13-3.37,1.31-5.13,1.44"/></g></svg>