<svg id="눈" xmlns="http://www.w3.org/2000/svg" viewBox="0 0 1500 1500"><defs><style>.cls-1{fill:#fff;}.cls-1,.cls-2,.cls-3{stroke:#000;stroke-linecap:round;stroke-linejoin:round;stroke-width:7px;}.cls-3{fill:none;}</style></defs><title>눈13</title><g id="_3" data-name="3"><path class="cls-1" d="M773,567.83c-18,8.45-21.14,10.57-35.63,26.08-13.82,14.8-20.81,40.94-20.94,55.58-.16,19.16,8.59,38.54,24,49.91,25.15,18.53,52.7,33.19,84.77,36.45,30.95,3.15,63.78,8.93,91.5-5.19,34.92-17.78,60.84-50.79,46.74-94.6-5-15.64-11.27-26.37-22-38.84-8.61-10-21.15-17.16-33.73-23.15C870.23,556.2,806.89,551.87,773,567.83Z"/><path class="cls-2" d="M765.78,588.79c-3.06,7.47-2.12,29.61.69,37.19,3.41,9.23,12.86,13.88,21.71,16.54,14.55,4.38,30.18,5.78,44.71,1.34s27.8-15.26,33.63-30.32c1.83-4.71,2.58-18.44,1.84-23.48-.93-6.26-5.9-17.85-13-21.68-14.79-8-26.45-5.3-42.45-3.64C794.82,566.62,773.17,570.73,765.78,588.79Z"/><path class="cls-3" d="M714.54,527.46c87.76,13.57,160.81,18.33,249,16.4"/><path class="cls-1" d="M672.35,644.18c-1.64,27.76-34.09,59.49-57,75.23s-50.68,23.35-78.4,25.72c-17.35,1.48-35.18,1-51.67-4.65S453.64,723.74,446,708.1c-7.33-15-9.38-38.16-4.15-54s26.84-41.49,39.64-52.15c28.32-23.57,78.26-32.81,122.47-32.51C653.91,569.8,673.45,625.61,672.35,644.18Z"/><path class="cls-2" d="M520.6,593.23c-7.48,8.71-10.38,29.77-8.2,40.2,1.67,8,17.31,17.77,24.68,21.26s31.7.93,39.79-.11c21.52-2.76,33.69-12.34,42.11-32.34,1.55-3.68,1.7-15.15.7-19-.77-3-7-13.94-9.09-16.21-14.62-15.76-31-15-53.75-11C549,577.38,526.93,585.86,520.6,593.23Z"/><path class="cls-3" d="M434.28,570.27c11.36-4.79,23.74-6.48,36-8.14,55.73-7.6,108.07-12.38,180.43-37.24"/></g></svg>