<svg id="눈" xmlns="http://www.w3.org/2000/svg" viewBox="0 0 1500 1500"><defs><style>.cls-1{fill:#fff;}.cls-1,.cls-2{stroke:#000;stroke-miterlimit:10;stroke-width:7px;}</style></defs><title>눈14</title><g id="_2" data-name="2"><path class="cls-1" d="M693.17,627.89c-6.51,15.8-4.62,37.08,8.2,48.38,4.52,4,12,10,17.46,12.46,22.79,10.37,37.73,15.67,59.36,18,12.74,1.37,25.1,2.35,37.9,1.16,14-1.31,35.33-3.14,48.48-7.39,10.4-3.36,30.88-9.77,38.94-15.24,13.35-9.06,13.35-9.06,21.87-18.14,12.56-13.37,17.5-30.68,14.23-48.74-2.38-13.17-14.25-24.72-25.05-32.64S891,573.1,878.07,569.52c-41.43-11.51-68.46-11-110.64.41A109.79,109.79,0,0,0,732,586a139.83,139.83,0,0,0-27,23.34A66.77,66.77,0,0,0,693.17,627.89Z"/><path class="cls-1" d="M582.5,590.68c-8.92-2.22-18.2-3.41-27.32-4.59-20.14-2.61-40.59-2.05-60.82-.15-22.24,2.1-38.32,9.76-59,18.15-9.43,3.82-17.95,9.49-23.73,17.62C405,631,401.1,636.06,400,647.53a50.38,50.38,0,0,0,3.64,25.33c4.14,10.21,9.75,16.93,19.54,22.61,14,8.12,27.91,14.81,43.89,17.37,42.94,6.87,85.23,11.91,125.52-4.44,17.66-7.16,25.15-10.09,34.39-23.45a105.66,105.66,0,0,0,13.65-26.65c2.6-7.19,2.52-13.69,1.2-21.23-.81-4.63-6.36-13.78-9.31-17.53A76.43,76.43,0,0,0,613.38,603C600.43,595.24,595.69,594,582.5,590.68Z"/><ellipse class="cls-2" cx="548.3" cy="686.02" rx="33.3" ry="46.51" transform="translate(-155.06 1211.9) rotate(-88.15)"/><ellipse class="cls-2" cx="775.71" cy="674.82" rx="30.65" ry="42.81" transform="translate(76.21 1428.35) rotate(-88.15)"/></g></svg>