<svg id="눈" xmlns="http://www.w3.org/2000/svg" viewBox="0 0 1500 1500"><defs><style>.cls-1{fill:none;stroke-linecap:round;stroke-linejoin:round;}.cls-1,.cls-2,.cls-3{stroke:#000;stroke-width:7px;}.cls-2{fill:#fff;}.cls-2,.cls-3{stroke-miterlimit:10;}</style></defs><title>눈15</title><g id="_1" data-name="1"><path class="cls-1" d="M831.23,535.32c-28.11,22.85-59.53,41.21-90.82,59.48-16.79,9.8-40,23.49-54.9,32.22"/><path class="cls-2" d="M694.54,642.87c-6.74,15.21-5.93,36.1,5.5,47.65,4,4.07,10.7,10.21,15.69,12.86,20.72,11,34.39,16.8,54.4,19.92,11.77,1.84,23.23,3.28,35.18,2.61,13.11-.73,26.21-1.52,39.29-2.69,14.73-1.31,29.17-4.33,42.61-10.88,14.69-7.17,19.08-13.06,27.4-21.61,12.27-12.59,23.52-28.88,21.28-46.67-1.64-13-8.56-20.31-18.25-28.47s-21.14-16.39-33-20.4c-38-12.87-78.78-15.64-118.51-6.12a100.29,100.29,0,0,0-33.65,14.32,133.14,133.14,0,0,0-26.14,21.78A66.42,66.42,0,0,0,694.54,642.87Z"/><path class="cls-2" d="M590.68,616.85c-8.12-1.5-16.15-6.17-24.27-7.68-17.94-3.32-36.29-1.38-54.51-.2-20,1.3-36.69,8.24-55.64,15.88-8.63,3.48-16.54,8.85-22.1,16.76-6.37,9.07-11.32,14.12-14.48,25.16a31.76,31.76,0,0,0,3,25.49c5.39,9.49,10.7,18.53,19.21,24.56a108.7,108.7,0,0,0,39.56,17.92c38.16,8.4,74.19,7.75,112.71,0,14.86-3,32.42-11.82,43.43-23.45,6.8-7.19,14.22-15.24,18.13-24.71a62.32,62.32,0,0,0,4.9-21c.48-7.63-4.4-13.82-9.33-19a81.84,81.84,0,0,0-22-16.36A143.6,143.6,0,0,0,590.68,616.85Z"/><path class="cls-1" d="M477.09,545.47c14.73,8.87,29.94,16.89,45.16,24.87,41.48,21.75,82,42.64,122,62.95"/><ellipse class="cls-3" cx="521.54" cy="644.76" rx="33.3" ry="46.51" transform="translate(-160.84 1116.02) rotate(-85.66)"/><ellipse class="cls-3" cx="771.92" cy="624.73" rx="30.65" ry="42.81" transform="matrix(0.08, -1, 1, 0.08, 90.56, 1347.15)"/></g></svg>