<svg id="눈" xmlns="http://www.w3.org/2000/svg" viewBox="0 0 1500 1500"><defs><style>.cls-1{fill:#fff;}.cls-1,.cls-2{stroke:#000;stroke-linecap:round;stroke-linejoin:round;stroke-width:7px;}</style></defs><title>눈2</title><g id="_14" data-name="14"><path class="cls-1" d="M820.4,590c31.07-7.4,64.52-7,95.42,2.11,17.83,5.28,40,21.14,43.52,29.13,2.52,5.78-3.07,30.68-9.71,41.4-6.08,9.8-14.29,21.38-21.61,27.77-13.31,11.63-24.51,19.08-39.94,25.37-29.48,12-56.64,14.28-87.75,6.4-25.75-6.52-73.39-27.5-65.36-57.14C743.39,634,786.12,598.19,820.4,590Z"/><path class="cls-2" d="M782.24,672c4.55-12.76,20.19-25.7,35.25-28.18a38.32,38.32,0,0,1,24.37,4.54,44.94,44.94,0,0,1,16.22,15.16c10.39,15.49,9.21,35.94,5.34,53.87a4,4,0,0,1-.86,2,5.39,5.39,0,0,1-2.46,1.18,113.13,113.13,0,0,1-64.93-1.51c-10.66-3.53-13-6.89-15-17A56.09,56.09,0,0,1,782.24,672Z"/><path class="cls-1" d="M527.15,735.59c-23.75-4.66-45.08-15.27-60.7-34.66s-25.83-43.12-32.24-67.62c21.67-25.31,51.44-47.81,84.95-49.87s59,7.23,86.89,26.83c18,12.59,49.76,49.92,49.06,70.51-.29,8.71-18.48,23.4-26.28,28.67a192.4,192.4,0,0,1-34.75,17.91C572.8,735.6,549.59,740,527.15,735.59Z"/><path class="cls-2" d="M551.92,735.91c-5.48.49-11.4.8-16-2.15-2.87-1.82-4.91-2.56-6.67-5.46-10.4-17.1-9.56-34.09-5-53.57,2.16-9.25,10.65-16.44,18.49-21.81,8.31-5.68,22.73-5.95,32.11-2.3s13.9,8.67,19.94,16.72c10.22,13.61,11,26,12,43,.08,1.59.12,6.41-.42,7.91-.78,2.12-5.78,2.6-7.57,4-7.3,5.63-15.3,6.19-23.81,9.75C567.46,735.14,559.9,735.18,551.92,735.91Z"/></g></svg>