<svg id="눈" xmlns="http://www.w3.org/2000/svg" viewBox="0 0 1500 1500"><defs><style>.cls-1{fill:#fff;}.cls-1,.cls-2,.cls-3{stroke:#000;stroke-linecap:round;stroke-linejoin:round;stroke-width:7px;}.cls-2{fill:none;}</style></defs><title>눈3</title><g id="_13" data-name="13"><path class="cls-1" d="M450.51,649.42c-.24,33.75,33.84,61.72,65.7,68.25s68,2,97.71-11.75c13-6,25.94-12.86,36.34-23s22.58-35.56,22.83-50.37c.44-26-19.88-45.17-41-59.15-27.6-18.3-72.56-22.21-106-16.17C460.91,569,450.77,613.32,450.51,649.42Z"/><path class="cls-1" d="M696.45,616.93c-1.88,28.73,14.21,56.25,39.34,70.3s55.07,16.89,83.83,15.39c23.55-1.23,47.49-5.36,68.06-16.91s37.4-31.49,40.66-54.85c1.93-13.76-.89-27.89-6.25-40.72-10.58-25.34-33-42-59.12-50.37C800.89,519.85,701.36,542.11,696.45,616.93Z"/><path class="cls-2" d="M567,509.49l89.77,49.16"/><path class="cls-2" d="M700.31,551.43c27.22-21.65,62.94-46.62,89.58-65"/><path class="cls-3" d="M557.3,654.13c9.08,5.75,20.89,8.35,31.1,4.73,6.48-2.3,11.83-6.88,16.12-12.05s7.58-11,8.21-17.39c2.3-23.18-32.39-43.79-54-34.45C532.17,606.43,535.61,640.42,557.3,654.13Z"/><path class="cls-3" d="M735.46,611.18c-.23,14.2,9.15,27.94,22.58,34.43s30.23,5.86,43.54-.85a37,37,0,0,0,14.1-11.7c9.18-13.4,3.93-32.74-9.21-42.81C783.44,572.61,736,576.53,735.46,611.18Z"/></g></svg>