<svg id="눈" xmlns="http://www.w3.org/2000/svg" viewBox="0 0 1500 1500"><defs><style>.cls-1,.cls-3{fill:#fff;}.cls-1,.cls-2{stroke:#000;}.cls-1,.cls-2,.cls-3{stroke-linecap:round;stroke-linejoin:round;stroke-width:7px;}.cls-3{stroke:#fff;}</style></defs><title>눈5</title><g id="_11" data-name="11"><path class="cls-1" d="M753.1,609c-1.53,11.88-11.76,16.76-22.92,23.21s-21.2,20.8-17,32.14c4.29,11.63,25.81,14,31,28.35,2,5.67.19,12.21,3.2,17.52,12.62,22.31,17.66,9.47,34.92,11.93,21.2,3,20.61,6.44,39.59,15.47,7.64,3.64,24.77,8.46,33.23,6.94,6.85-1.23,16.61-13.17,23-15.64,14.14-5.44,25.87,8.16,41.21,7.41,15.95-.78,24.42-15.87,36.93-24.82,10.49-7.5,26.83-10,28.44-22,2.87-21.48-23.82-36.58-30.53-57.35-2.6-8-2.06-16.63-3.39-24.93-2.87-17.9-7.54-29.51-24.73-38.82-7.75-4.2-24.41-11.92-33.29-10.41-8.46,1.44-15.68,6.62-24.13,8.15-13.18,2.38-25-4.24-37.38-7-15.13-3.32-22.26,9.54-36.47,13.08-9.35,2.32-19.39-5.55-27,.45C752.92,584.3,755,594.26,753.1,609Z"/><path class="cls-1" d="M522.87,564.37c1.33,1.71,2.16,3.73,3.84,5.2,3,2.67,8.19,2.93,12.51,1.75s8.07-3.53,11.89-5.64c-2,1.08,25.68-17.26,43.69-2.52,5.93,4.86,8.07,12.58,14.85,16.58,5.84,3.45,13.74,3.33,20.45,5.46,8.39,2.67,27.28,9.22,32.59,15.24,6.93,7.83,13.45,18.06,8.33,27.23-5.66,10.12-15,13.68-17.3,16.56-8.83,11.28-11,12.24-6.3,24,1.65,4.1,9.37,14.12,9,18.51-.3,3.68-7.12,13.22-8.93,16.63-6.46,12.14-23.18,19.38-38.61,21.78-21.76,3.4-38.22-18.66-60.2-17.37-9.3.54-14.06,9.33-22.63,12.69s-22.83,1.2-30.1-3.41c-12.44,8.13-15.28,22.5-18.3,35.31s-9.14,27.37-23.74,32.09c-2.5.81-5.34,1.26-7.72.39-2.68-1-4.14-3.38-5.05-5.72-4.36-11.23-.23-23.82,5.38-35s12.8-22.18,14.82-34.1c.35-2,.51-4.27-.75-6s-3.36-2.48-5.47-3.16c-9.68-3.11-11.66-9.27-13.57-17.89-2.53-11.42,6.46-19.25.22-29.5-1.53-2.52-4.39-4.23-6.77-6.21a23.32,23.32,0,0,1-6.6-27.75c4.42-9.5,15.9-15.2,27.65-17.61,7.27-1.49,9.37-1.75,14.1-6.59,3.44-3.53,4.73-4.84,6.31-9.3,1.72-4.85,1.22-10.07,4.61-14.41,1.84-2.36,3.68-4.71,6.7-6.15,1-.46,5.31-1.79,8.13-3.13,3-1.44,3-1.31,5-1.44C514.79,560,517.28,557.16,522.87,564.37Z"/><path class="cls-2" d="M537.68,607c-3.69-.55-7.34-1.35-11-1.76a13.16,13.16,0,0,0-5.12.18,13.74,13.74,0,0,0-3.24,1.54A77.86,77.86,0,0,0,507.16,615a12.13,12.13,0,0,0-3.53,4.35c-1.13,2.84-.16,6,.6,9,1.42,5.45,2.08,11.44-.32,16.53-.7,1.49-1.65,2.87-2.2,4.42A5.29,5.29,0,0,0,502,654a6.12,6.12,0,0,0,2,1.66c5.76,3.39,12.81,3.47,19.5,3.46l22.8-.06a13.47,13.47,0,0,1,5,.63c3.08,1.22,4.78,4.48,7.38,6.54,3.77,3,9,3.15,13.8,3.18l10.32.06c2.44,0,5,0,7.18-1.11,2.76-1.41,4.41-4.34,5.47-7.26a32.26,32.26,0,0,0,1.9-12.54c-.14-2.88-.66-5.79,0-8.6,1.74-7.69,11.26-11.63,13.14-19.28,1.11-4.54-.88-9.43-4.13-12.79a17.74,17.74,0,0,0-10.77-5.24c-5.08-.54-7.57,1.92-11.9,3.66-3.77,1.51-7.9-1.52-11.89-1.24-5,.35-9.88,2-14.89,2.41A81.8,81.8,0,0,1,537.68,607Z"/><path class="cls-2" d="M793.59,613.51c-4.53,1.35-8.57,4-12.52,6.63l-7.94,5.25c-5.56,3.68-11.78,8.57-11.56,15.3.17,5,4,9.13,8.17,11.91s8.83,4.83,12.3,8.41c2.31,2.37,4,5.31,6.15,7.79,4.72,5.35,11.29,13.58,18.29,14.64S821,678.57,828.05,678c2.14-.17,4.48-.45,5.93-2,2.17-2.36,1.23-6.26,2.6-9.17s4.57-4.16,7.63-4.39,6.11.43,9.17.45c12.64.07,23.88-12.5,22.55-25.23a28.06,28.06,0,0,0-5.7-13.77c-2.84-3.79-6.62-7.08-11.18-8.2-4.17-1-8.83-8.26-13.07-7.63-10.09,1.5-20.08,9.76-30.21,8.55C808.08,615.63,801.47,611.16,793.59,613.51Z"/><path class="cls-3" d="M532.57,618.49c-2.48-.41-5.1,1.44-6,4.23,1.72.46,3.53.91,5.22.32a4.31,4.31,0,0,0,2.75-4.66l-2,0"/><path class="cls-3" d="M575.17,644.16a3.9,3.9,0,0,0-1.09,1.33,2.58,2.58,0,0,0,2.92.77c1-.51.93-2.28-.14-2.45"/><path class="cls-3" d="M794.93,625c-2,.24-4.17.52-5.83,1.72s-2.62,3.63-1.51,5.35a4.05,4.05,0,0,0,2,1.52c3,1.22,6.48,0,9-2.1a2.54,2.54,0,0,0,1-1.21,2.86,2.86,0,0,0-.27-1.69,8.51,8.51,0,0,0-1.59-2.91,3,3,0,0,0-3-.94"/><path class="cls-3" d="M839.45,646.83a1.51,1.51,0,0,0,1.08,2.15,2.19,2.19,0,0,0,2.25-1.4,2.22,2.22,0,0,0-.79-2.76,1.54,1.54,0,0,0-2.25,1.26"/></g></svg>