<svg id="눈" xmlns="http://www.w3.org/2000/svg" viewBox="0 0 1500 1500"><defs><style>.cls-1{fill:#fff;}.cls-1,.cls-2{stroke:#000;}.cls-1,.cls-2,.cls-3{stroke-linecap:round;stroke-linejoin:round;stroke-width:7px;}.cls-3{fill:none;stroke:#fff;}</style></defs><title>눈6</title><g id="_10" data-name="10"><path class="cls-1" d="M710.62,623.85c-7.21,17-11.91,38.17-4.23,55,4.76,10.4,23.57,27,32.77,33.82,32.2,23.8,83.94,29.39,124,28.08,29-.94,60.52-11.19,74.66-36.49,9.26-16.57,9.62-36.3,6.44-55C941.48,633.11,931.13,624,921,611.17c-25.18-31.69-72.86-39.8-111-38.06C774.38,574.74,724.07,592.11,710.62,623.85Z"/><path class="cls-2" d="M744.18,677.75c3.68,6.11,7.5,12.29,12.92,16.92,9.92,8.47,24.1,10.57,37,8.39a31.65,31.65,0,0,0,10.34-3.33C811.8,695.56,816,687.27,817.9,679c1.17-5,1.66-10.34,0-15.18-7.39-20.9-33.34-12.18-49-12.78-7-.27-12.57-2.73-19.43.11C736.55,656.45,738.05,667.59,744.18,677.75Z"/><path class="cls-1" d="M662.83,690.85c-6.6,7.67-15.51,12.92-24.32,17.91C609.82,725,580,740.19,547.69,746.93c-12,2.5-24.29,3.82-36.44,2.45-36.8-4.15-68.76-35.54-73.56-72.26-1.38-10.55-.68-21.56,3.45-31.37,5.42-12.89,16.27-22.73,27.76-30.7,25.69-17.81,57.87-34.77,89-32.18,21,1.75,38.31,2.94,58.32,9.2,17.41,5.45,29.32,12.31,37.67,21.92C674.88,638.11,678.63,667.37,662.83,690.85Z"/><path class="cls-2" d="M589.23,709.85c7.32,2,15.49,1.75,21.95-2.42,4-2.6,15.55-10.15,18-14.43,5-8.74,1.31-13.23,2.16-29.74.11-2.15-2-6.6-4.31-8-2-1.19-17.31-6-19.42-6.87-15.69-6.76-33,6.66-46.4,18.73C540.65,685.6,574.08,705.75,589.23,709.85Z"/><path class="cls-3" d="M619.6,678.58a7.42,7.42,0,0,0-5,.08c-1.55.73-2.6,2.68-1.84,4.21a3.6,3.6,0,0,0,1.35,1.39,6.48,6.48,0,0,0,9.16-3.24l-3.58-2.21"/><path class="cls-3" d="M762,678.42c-1.22-.63-2.48,1.27-2.19,2.79a6.33,6.33,0,0,0,2.56,3.47,7.88,7.88,0,0,0,3.87,2.12,2.94,2.94,0,0,0,3.2-2.62A4.3,4.3,0,0,0,768,681a8.65,8.65,0,0,0-7.32-2.6"/></g></svg>