<svg id="눈" xmlns="http://www.w3.org/2000/svg" viewBox="0 0 1500 1500"><defs><style>.cls-1{fill:none;}.cls-1,.cls-3{stroke:#000;stroke-linecap:round;stroke-linejoin:round;stroke-width:7px;}.cls-2{fill:#fff;}</style></defs><title>눈7</title><g id="_9" data-name="9"><path class="cls-1" d="M965.36,667.19c2.11-18,3.17-27.48-10.23-55.68-5.23-11-14.43-19.6-23.89-27.26-29.1-23.58-65.57-25-102.85-28-15.57-1.25-43.78-.08-57.85,6.21-15.07,6.74-36.12,20.37-43,34.93-4.43,9.38-9.51,20.09-11.13,32"/><path class="cls-1" d="M670.45,641.82c-2.11-43.34-29.6-65.54-66.63-77.48-57.41-18.51-130.38-5.75-160.28,37.7-11.69,17-15.64,33.53-15.42,50.43"/><path class="cls-2" d="M964.53,668.59l-.08.55c-2,9.64-7,18.48-13.23,26.05s-13.83,14-21.48,20.18l-.32.44c-18,11.63-32.9,16.11-51.41,17.2a328.19,328.19,0,0,1-61.48-2.16c-21.52-2.79-43.55-1.3-61.52-15l-.28.29c-12.63-10.19-23.2-23.3-29.31-38.34-6-14.75-9.38-30-8.51-47.57H717C799.87,643,881.67,655.79,964.53,668.59Z"/><path class="cls-1" d="M755,715.81c18,13.74,40,12.25,61.52,15A328.19,328.19,0,0,0,878,733c18.51-1.09,33.44-5.57,51.41-17.2"/><path class="cls-1" d="M717,630.19c82.87,12.8,164.67,25.6,247.53,38.4l.36.06"/><path class="cls-1" d="M717,629.14c0,.34,0,.7-.05,1.05-.87,17.53,2.51,32.82,8.51,47.57,6.11,15,16.68,28.15,29.31,38.34"/><path class="cls-1" d="M929.74,715.37c7.65-6.19,15.2-12.6,21.48-20.18s11.28-16.41,13.23-26.05"/><path class="cls-2" d="M669.53,639.81c.8,3,1.61,8.26,1.21,11.32-2.1,15.73-6.63,29.8-16.44,43.74l-.66.26c-6.67,10.2-20.22,17.29-30.56,23.74-15.64,9.73-31.91,13.85-48.42,17-16.88,3.25-46.91,8.45-65.18,5.71l0,.27c-21.65-3.34-33.25-10.51-48.28-22.9-6.13-5.05-15.85-18-21.14-26.42-7.38-11.79-10.36-25.52-11.48-39.39l1-.08,94-7.61c49.5-4,92-10,144.49-8.24Z"/><path class="cls-1" d="M509.48,741.61c18.27,2.74,48.3-2.46,65.18-5.71,16.51-3.18,32.78-7.3,48.42-17,10.34-6.45,23.89-13.54,30.56-23.74"/><path class="cls-1" d="M429.57,653.09l94-7.61c49.5-4,92-10,144.49-8.24"/><path class="cls-1" d="M654.3,694.87c9.81-13.94,14.34-28,16.44-43.74.4-3.06-.41-8.34-1.21-11.32"/><path class="cls-1" d="M511.9,742.24l-2.46-.36c-21.65-3.34-33.25-10.51-48.28-22.9-6.13-5.05-15.85-18-21.14-26.42-7.38-11.79-10.36-25.52-11.48-39.39l-.06-.73"/><path class="cls-3" d="M564.75,723.21c-6.34-6.34-8-18.53-6.34-25.37,2.88-12,18-23,30.07-25.44s25.45,3.13,31.82,13.65C640.74,719.82,580.74,739.21,564.75,723.21Z"/><path class="cls-3" d="M769.4,667.68c13.14-1.24,25.89,6.51,33.86,17,4.74,6.26,9.38,12.68,8.83,20.52-2,27.84-37.83,21.81-53.91,8.46C740.5,699,745.41,670,769.4,667.68Z"/></g></svg>