<svg id="눈" xmlns="http://www.w3.org/2000/svg" viewBox="0 0 1500 1500"><defs><style>.cls-1{fill:none;}.cls-1,.cls-2,.cls-3{stroke:#000;stroke-linecap:round;stroke-linejoin:round;stroke-width:7px;}.cls-2{fill:#fff;}</style></defs><title>눈8</title><g id="_8" data-name="8"><path class="cls-1" d="M455.21,569.51a2959.09,2959.09,0,0,1,507.58,33.84"/><path class="cls-2" d="M714.85,647.1c-5.29,11.6-3,34.21,5.28,48.63,8.46,14.8,32.59,28.64,48.62,33.82s22.33,7.66,39.11,8.46c22.2,1.06,43.21,1.17,55-1.06s22.38-6.65,32.83-12.36c14.28-7.8,36.19-25.38,38-41.55,2.11-19-.66-28.42-3.17-38-8.06-30.93-30.88-39.35-60.87-48.46-35.32-10.73-80.77-12.85-110.37,6.18C741.58,614.06,723.51,628.08,714.85,647.1Z"/><path class="cls-2" d="M465.9,617.24c-13,22.15-10.33,58.35,9.85,79.59,14.95,15.74,37,27.83,58.35,31.67,24.88,4.46,57.08,2.71,81.39-4.23,28-8,48.16-22.67,61.3-45.45,19.44-33.69-16.92-66.44-43.33-84.57-28-19.2-87.55-26.36-118.14-16.5A89.45,89.45,0,0,0,465.9,617.24Z"/><path class="cls-3" d="M568.73,627.66c7.36,2.77,15.48,4.08,23.16,2.35s14.82-6.83,17.76-14.13c10.58-26.2-28.36-46-49.83-41.12-10.68,2.42-16.19,12.13-16.2,22.77C543.6,612.24,555.9,622.84,568.73,627.66Z"/><path class="cls-3" d="M780.13,607.54c-3,3.89-5.71,8.45-5.44,13.36.45,7.91,8.28,13.31,15.8,15.83a57.87,57.87,0,0,0,33.9.83c9.51-2.68,18.71-8.29,23.21-17.09s2.93-21-5.2-26.67c-4.12-2.86-9.3-3.76-14.31-4C808.66,588.73,792.68,591.33,780.13,607.54Z"/></g></svg>