<svg xmlns="http://www.w3.org/2000/svg" viewBox="0 0 1500 1500"><defs><style>.cls-1{isolation:isolate;}.cls-2{fill:#fff;}.cls-2,.cls-3,.cls-5{stroke:#000;stroke-linecap:round;stroke-linejoin:round;}.cls-2,.cls-3{stroke-width:7px;}.cls-4{mix-blend-mode:multiply;}.cls-5{fill:none;stroke-width:4px;}</style></defs><title>눈9</title><g class="cls-1"><g id="눈"><g id="_7" data-name="7"><path class="cls-2" d="M768,590.83c-26.07,10-45.51,35.84-47.11,62.77-1.69,28.49,18.86,55.43,45.65,67.75S825,733.19,853.72,726c31.55-7.94,68.38-11.87,80.94-40.79,10.24-23.56,3.82-58.61-16.51-75C876.34,576.28,811.43,574.17,768,590.83Z"/><path class="cls-3" d="M766.45,647.1c-6.87,6.07-13.82,16.86-13.08,25.66.84,10.16,8.24,19.19,17.66,24.33s20.62,6.81,31.53,6.72c16.46-.13,34.38-5.07,43.21-18,8.12-12,5.87-28.47-4.65-38.66C824.34,630.86,783.27,632.24,766.45,647.1Z"/><path class="cls-2" d="M505.5,729.55c-21-5.28-53.15-14.82-60.73-33.82-9.36-23.48-12.12-50.1,5.52-68.71s59.62-34.88,86.12-39.11c25.89-4.13,48.58-2.11,72.39,12,50,29.73,62.08,85.56,25.88,113.75C605.06,736.75,539.68,738.17,505.5,729.55Z"/><path class="cls-3" d="M562.13,705.82c-13.81-1.65-28.91-4.79-37.06-15.08-8-10.13-6.4-25,1.91-35s22.06-15.29,35.74-16.33a66.13,66.13,0,0,1,16.63.78,56.26,56.26,0,0,1,33.09,18.91,28.35,28.35,0,0,1,5.94,10.79,23.69,23.69,0,0,1-1.33,14.49,38.38,38.38,0,0,1-19.27,19.89C587.34,708.89,573.15,707.14,562.13,705.82Z"/><g class="cls-4"><path class="cls-5" d="M660,645c15.76.71,36.46,1,51.66,1"/><path class="cls-5" d="M671.72,657c6.2.23,23.19.45,29.38.68"/><path class="cls-5" d="M660,667c13.75,1,42.11,2.34,55.86,3.34"/><path class="cls-5" d="M665,679.6c13,2,36.77,2.52,49.9,2.39"/><path class="cls-5" d="M664.25,693.39c11.93,1.22,36.55,2.17,48.48,3.39"/><path class="cls-5" d="M676.09,704.88l22.71,2.23"/><path class="cls-5" d="M678.94,716.17l15.15.75"/><path class="cls-5" d="M659.33,633.72c15.15-.46,37.2,1.42,52.34,1.76"/><path class="cls-5" d="M662.79,620.29c13,1.28,38,2.28,51,.39"/><path class="cls-5" d="M669.93,609.52c7.12.25,26.17-.09,33.29-.47"/></g></g></g></g></svg>