<svg id="배경" xmlns="http://www.w3.org/2000/svg" viewBox="0 0 1500 1500"><defs><style>.cls-1{fill:#71aef3;}.cls-2{fill:#ff931e;}.cls-3{fill:blue;}.cls-4{fill:#fff;}</style></defs><title>배경1</title><g id="_1" data-name="1"><rect class="cls-1" width="1500" height="1500"/><g id="주황"><rect class="cls-2" x="1312.47" y="940.4" width="54" height="50.34" transform="translate(1339.54 -685.64) rotate(54.22)"/><rect class="cls-2" x="345.72" y="295.63" width="66.74" height="67" transform="translate(315.42 -168.85) rotate(41.75)"/><rect class="cls-2" x="944.36" y="196.12" width="40.49" height="40.97" transform="translate(38.05 561.4) rotate(-33.07)"/></g><g id="파랑"><rect class="cls-3" x="1207.3" y="228.16" width="53.25" height="53.73" transform="translate(208.65 -477.38) rotate(23.86)"/><rect class="cls-3" x="149.19" y="1032.01" width="38.21" height="37.91" transform="translate(-405.94 1947.12) rotate(-138.25)"/><rect class="cls-3" x="208.05" y="197.56" width="44.46" height="44.55" transform="translate(-37.95 48.35) rotate(-11.08)"/></g><g id="흰"><rect class="cls-4" x="687.76" y="116.16" width="49" height="49.37" transform="translate(-2.91 266.06) rotate(-21.12)"/><rect class="cls-4" x="1262.33" y="529.12" width="35.49" height="35.69" transform="translate(1705.78 -778.38) rotate(84.67)"/><rect class="cls-4" x="165.36" y="821.11" width="49" height="48.71" transform="translate(-291.84 125.17) rotate(-21.12)"/></g></g></svg>