<svg id="소품" xmlns="http://www.w3.org/2000/svg" viewBox="0 0 1500 1500"><defs><style>.cls-1{fill:#8c9b83;}.cls-1,.cls-3{stroke:#000;stroke-miterlimit:10;stroke-width:7px;}.cls-2{fill:none;stroke:#f2f2f2;stroke-linecap:round;stroke-linejoin:round;stroke-opacity:0.4;stroke-width:5px;}.cls-3{fill:#667c55;}</style></defs><title>소품1</title><g id="_1" data-name="1"><path class="cls-1" d="M326.2,267.79a2.09,2.09,0,0,0,1,2.82,209,209,0,0,0,82.06,11.48c2.78-.17,5.7-.47,8-2.32,3.47-2.81,4.37-8.25,4.93-13.14A644.83,644.83,0,0,0,419,97a166,166,0,0,1-60.73,5.09c-27.71-2.71-19.92,3-20.69,33C337.33,144.33,333,252.38,326.2,267.79Z"/><path class="cls-2" d="M338.89,257.24A523.92,523.92,0,0,0,412.32,263c4.51-52,.64-99.69-4.12-151.63.15,1.6-33.47,2.32-36.48,2.76-5.87.85-12.6.42-18.31,2.06-5.91,1.7-5.27,4-5.25,11,.06,27.66-1.09,55.3-3.61,82.8Q342.36,233.72,338.89,257.24Z"/><path class="cls-1" d="M145,1060.54a2258.57,2258.57,0,0,1,224.47,63.07c2.81,1,5.73,1.91,8.68,1.64,2.69-.25,5.17-1.51,7.57-2.75l91.66-47.16c-23.21-25.09-56.43-38.08-88.84-48.93q-34.55-11.55-69.73-21.1c-21.22-5.76-42.7-15-64.17-8.32A282.42,282.42,0,0,0,145,1060.54Z"/><path class="cls-2" d="M207.45,1053.36a426.21,426.21,0,0,1,59.29-40.88"/><path class="cls-2" d="M234.59,1056.66c6.3,2.92,13.74,1.58,20.31-.67A80.42,80.42,0,0,0,291,1030.72c4.79-5.92,5-12.51-3.45-12.83-5.07-.19-12.07,7.32-16.32,9.87C257.12,1036.23,243.89,1042.21,234.59,1056.66Z"/><path class="cls-2" d="M296.58,1041.3c-8.76,5-16.56,12.3-20.22,21.69-.63,1.59-1.08,3.55,0,4.9a4.53,4.53,0,0,0,2.21,1.36c5.82,1.92,12.09-.51,17.7-3,6.85-3,13.71-6.2,19.74-10.63,4.48-3.3,22.43-20.89,10.68-25.08-3.64-1.29-9.24,2.07-12.62,3.24A100.85,100.85,0,0,0,296.58,1041.3Z"/><path class="cls-2" d="M313.16,1074.1c-1.07,1.5-2.11,3.54-1.07,5.06a3.6,3.6,0,0,0,1.79,1.24c3.74,1.39,7.87-.19,11.48-1.86a180.6,180.6,0,0,0,22.52-12.41c6.62-4.29,13.74-9.72,16.56-17.41,4.69-12.78-6.46-10.64-13.76-5.88C337.25,1051.58,322.63,1061,313.16,1074.1Z"/><path class="cls-2" d="M358.52,1077.55a21.18,21.18,0,0,0-3.34,13.42,4.77,4.77,0,0,0,.7,2.22,2.79,2.79,0,0,0,2.41.89c6.52,0,12.87-2.69,19-5.68,7.56-3.7,15.11-8.11,21-15.42a22,22,0,0,0,4.33-7.94c.85-3.1.76-6.8-.72-9.45-4.16-7.43-15.26-4-20.36-.1C374,1061.26,364.14,1068.65,358.52,1077.55Z"/><path class="cls-1" d="M1161.26,1005.58a2.38,2.38,0,0,0-.44,3.64,337.4,337.4,0,0,0,93.7,68.11c3.51,1.71,7.26,3.4,11.14,3,5.91-.59,10.2-5.7,13.75-10.47a669.39,669.39,0,0,0,95.72-180.72A269.44,269.44,0,0,1,1297.8,853c-32.33-21.77-26.18-10.38-44.7,20.59C1247.37,883.21,1178.67,994,1161.26,1005.58Z"/><path class="cls-2" d="M1182.67,1012.47l64.17,43.73c3.16,2.15,6.65,4.4,10.47,4.11,5.06-.4,8.59-5,11.4-9.24,24.16-36.31,45.16-74.6,66.13-112.84,7.14-13,14.33-26.15,18.37-40.42q-37.57-16.9-74.59-35c-1.49,12-12.81,26.45-18.52,37.08-7.36,13.72-14.94,27.32-23,40.61C1233.05,947.06,1187.37,1015.87,1182.67,1012.47Z"/><path class="cls-3" d="M1118,904.39a202.62,202.62,0,0,1,80.07-59.78,856.2,856.2,0,0,1-94.73-166.23,3.37,3.37,0,0,0-4.32-1.83c-23,8.88-60.73,22.85-81.67,31.85-22.46,9.66-1.25,41.27,9.59,63C1033,783.56,1114.81,908.18,1118,904.39Z"/><path class="cls-2" d="M1039.14,735.53a433.49,433.49,0,0,1,53.44-22.42"/><path class="cls-2" d="M1061.54,744.25c-5.69,3.11-10.88,8.08-12,14.47a2.55,2.55,0,0,0,2.65,3.6c4.46.29,8.83-1.2,13-2.66,11.62-4,23.39-8.11,33.59-15,11.3-7.61,7.38-14.26-4.52-13C1083,732.88,1071.72,738.69,1061.54,744.25Z"/><path class="cls-2" d="M1067.55,782.56c-1.42,1.28-2.87,3.44-1.62,4.89a3.67,3.67,0,0,0,2.29,1c8,1.29,59.63-10.54,49.89-23.6C1109.35,753.1,1074,776.71,1067.55,782.56Z"/><path class="cls-2" d="M1086.39,819.31a5.76,5.76,0,0,0,0,3c1,3.1,5.36,3.1,8.5,2.24,7.2-2,58.53-25.84,35.93-34.34C1116.23,784.7,1089.25,806.35,1086.39,819.31Z"/><path class="cls-2" d="M1121.72,827.08c-5.41,2.2-10.89,4.81-14.65,9.28-2.34,2.77-3.92,6.73-2.34,10,1.29,2.65,4.39,4.06,7.35,4.11a21.16,21.16,0,0,0,8.52-2.15,85.15,85.15,0,0,0,24.31-14.89c4.61-4.15,11.58-13.35,3.12-15.22C1142.06,816.89,1127.21,824.85,1121.72,827.08Z"/><path class="cls-3" d="M221.57,1007.24c5,.83,10.22,1.58,15.1.15,3.87-1.13,7.22-3.56,10.48-5.94,52.79-38.55,107.48-79.28,137.29-137.36a1.07,1.07,0,0,0-1-1.55c-47.56,2.43-96,4.58-141.93-7.92a1,1,0,0,0-1.22.56c-10.54,21.78-29.23,38.87-50.11,51.13-21.12,12.42-44.56,20.31-68,27.58-18.56,5.77-45.37,8.49-62.07,18.26a1.06,1.06,0,0,0-.08,1.77c6.7,4.86,17.73,7.39,25.18,10.87q22.17,10.38,45.2,18.7A522,522,0,0,0,221.57,1007.24Z"/><path class="cls-2" d="M223.42,987.78c3.81.74,7.81,1.43,11.51.25a23,23,0,0,0,5.84-3.18c44-29.93,83.53-63.94,116.39-105.72a1.6,1.6,0,0,0-1.34-2.59c-17.19.87-36.55,2.31-54.64,2-16.44-.33-29.16-1-45.19-4.68-2.79-.64-5.85-1.39-8.42-.12A12.17,12.17,0,0,0,244,876.9c-35,40.66-88.7,67.66-138.87,73.81a.39.39,0,0,0-.11.74c5.16,2.33,17,8.62,21.77,10.54,9.85,3.94,22.25,6.93,32.42,10Q190.9,981.46,223.42,987.78Z"/><path class="cls-1" d="M151,644.24q52.59-91.68,96.67-187.91a792.59,792.59,0,0,1-90.94-35.72,3.68,3.68,0,0,0-5.21,3.08c-2.34,26.48-54.83,123.48-61.47,133.56C83,568,75.44,578.44,67.39,588.49c-9.69,12.11-18.92,15.66-6.12,25.33,10.41,7.87,31.57,10.69,44,14.91Z"/><path class="cls-2" d="M99.24,587a468.66,468.66,0,0,1,52.53,14.1"/><path class="cls-2" d="M116.73,571.7a112.59,112.59,0,0,0,42.1,11.73c2,.16,4.42.1,5.64-1.52,1.42-1.9.32-4.6-1-6.59-7.49-11.43-20.42-17.39-33.79-18-4.09-.18-9.79-1.19-13.55.79C109.29,561.72,110.46,568.54,116.73,571.7Z"/><path class="cls-2" d="M155.49,551.3c4.21,1.38,8.65,2.41,13,1.81,3.09-.42,6.53-2.26,6.74-5.37a6.68,6.68,0,0,0-.74-3.17c-3.42-7.4-11.94-10.77-19.76-13.11a51.31,51.31,0,0,0-11.9-2.46c-5.45-.26-20.82,4.78-12,11.58,2.36,1.81,7.25,2.79,10,4.3A84.75,84.75,0,0,0,155.49,551.3Z"/><path class="cls-2" d="M185.33,526.84a6.52,6.52,0,0,0,3.35-.33,4.68,4.68,0,0,0,2-2.14c1.7-3.28.74-7.45-1.49-10.39s-5.52-4.87-8.81-6.54c-6-3-38.58-15.1-39.26-.71-.34,7.17,13.12,11.68,18.49,13.88A87.26,87.26,0,0,0,185.33,526.84Z"/><path class="cls-2" d="M194.1,496.22c3.12.12,6.86-.31,8.3-3.08a6,6,0,0,0,.37-4,12.29,12.29,0,0,0-5.63-7.48,32.78,32.78,0,0,0-8.89-3.59,94.23,94.23,0,0,0-20.72-4c-11.5-.61-16.47,6.6-5.62,13C171.47,492.82,183.06,495.77,194.1,496.22Z"/><path class="cls-3" d="M442,196.61A1113.34,1113.34,0,0,0,527.88,315c23.9-25,46.85-42.47,72.62-64.74-23.58-26.73-58.41-66.79-76.58-95.08-9.41-14.66-22,1.58-37.54,9.69-3.46,1.81-32.94,20.79-43.25,26.43A3.86,3.86,0,0,0,442,196.61Z"/><path class="cls-2" d="M468.22,196.78l38.19-21.24"/><path class="cls-2" d="M480.47,203.3c-1.51,2-2.82,4.55-2.37,7.07,5.28,1.76,11.09,1.16,16.36-.61s10.12-4.64,14.92-7.5c2.65-1.57,5.41-3.25,7-5.93,6.47-11-3-14.37-11.31-9.93C496.29,191.08,486.65,195,480.47,203.3Z"/><path class="cls-2" d="M499.42,219.13c-2.79,2-5.61,4.18-7.05,7.31a4.86,4.86,0,0,0-.36,3.86c1,2.29,4.09,2.44,6.5,2A51.59,51.59,0,0,0,528,216.2c5.09-5.61,5.08-18-4.52-13.33-3.18,1.53-6.2,5.5-9.52,7.4C509,213.11,504.11,215.82,499.42,219.13Z"/><path class="cls-2" d="M505.24,240.08c-1.7,1.22-3.58,3.25-2.65,5.14a4,4,0,0,0,2.81,1.8c7,1.74,14.26-1,20.62-4.42,4.5-2.42,9.28-5.52,12.12-9.95,2.4-3.74,4.79-12.13-2.8-11-3,.45-9.4,6.13-12.52,7.72A135,135,0,0,0,505.24,240.08Z"/><path class="cls-2" d="M524.28,259.09c-1.18,1.28-2.42,3-1.87,4.61a4.32,4.32,0,0,0,2.82,2.33c4.66,1.7,9.9,1.14,14.53-.63s8.76-4.69,12.72-7.73c7.77-6,8.83-21.45-4.47-18.7C539.89,240.65,529.7,253.22,524.28,259.09Z"/><path class="cls-3" d="M1345.06,636.31c4.35.65,8.88,1.24,13.11.12,3.37-.89,6.28-2.8,9.11-4.67,45.85-30.28,93.35-62.29,119.25-107.92a.85.85,0,0,0-.87-1.21c-41.31,1.91-83.41,3.6-123.28-6.22a1,1,0,0,0-1.06.44c-9.15,17.11-25.39,30.53-43.52,40.17-18.35,9.75-38.71,16-59,21.67-16.13,4.53-39.41,6.67-53.92,14.34a.79.79,0,0,0-.06,1.39c5.82,3.82,15.39,5.81,21.86,8.54q19.26,8.14,39.27,14.69A492.8,492.8,0,0,0,1345.06,636.31Z"/><path class="cls-2" d="M1280.42,596.57a295.47,295.47,0,0,0,65.57,16"/><path class="cls-2" d="M1353.28,602.25a7.88,7.88,0,0,0,4.5-.37c2.56-1.3,3-5,1.53-7.53s-4.1-4-6.69-5.18a87,87,0,0,0-40.2-8.21c-17.2.65,5.4,11.92,10.12,13.72A128.63,128.63,0,0,0,1353.28,602.25Z"/><path class="cls-2" d="M1382.76,581.62c1.83,0,4.06-.16,4.86-1.81.89-1.85-.75-3.89-2.33-5.2-6.67-5.53-36.79-20.38-43.63-8.9C1333.63,579.18,1375.07,581.38,1382.76,581.62Z"/><path class="cls-2" d="M1364.38,549.83c11.2,9.18,28.82,15.21,43.18,13.34-8.22-14.3-27.8-20.77-42.92-14.19"/><path class="cls-2" d="M1386.28,537.67c6.08,7.3,22.37,7.4,33.23,7.31,2,0,5.93-2.07,4.75-4.34a3.93,3.93,0,0,0-1.87-1.5,49.45,49.45,0,0,0-37.33-2.65"/><path class="cls-3" d="M256.62,1282.45c3.6.8,7.35,1.57,11,1.16a29.34,29.34,0,0,0,7.93-2.38c40.38-16.59,82.24-34.2,107-62.78.31-.36,0-.86-.64-.89-34.68-2.14-70-4.5-102.7-14.43a.87.87,0,0,0-.91.21c-8.8,10.76-23.27,18.46-39.09,23.44-16,5-33.44,7.54-50.82,9.69-13.79,1.72-33.4,1.22-46.05,5.19a.49.49,0,0,0-.15.93c4.62,3.06,12.49,5.19,17.72,7.57q15.56,7.08,31.86,13.15A499.57,499.57,0,0,0,256.62,1282.45Z"/><path class="cls-2" d="M205.22,1250.31A298,298,0,0,0,259,1266.54"/><path class="cls-2" d="M265.77,1260.19a8.17,8.17,0,0,0,3.8.12,3.32,3.32,0,0,0,1.78-4.94c-1-1.79-3.16-3-5.25-4a88.43,88.43,0,0,0-33.08-8.86c-14.42-1,3.73,8.48,7.55,10.08A130.05,130.05,0,0,0,265.77,1260.19Z"/><path class="cls-2" d="M291.81,1248.74c1.53.19,3.41.23,4.18-.81s-.36-2.68-1.6-3.7c-5.2-4.28-29.4-16.78-35.89-9.61C250.88,1243,285.39,1247.94,291.81,1248.74Z"/><path class="cls-2" d="M278.57,1225.81c8.75,7.11,23.08,12.63,35.22,12.57-5.92-10.32-21.86-16.3-35-13.12"/><path class="cls-2" d="M297.69,1219.43c4.6,5.42,18.22,6.85,27.31,7.69,1.71.16,5.09-.91,4.26-2.53a3.32,3.32,0,0,0-1.46-1.17,50.89,50.89,0,0,0-31.05-4.88"/><path class="cls-1" d="M991.41,296.83A604,604,0,0,0,1129.5,416.94a2.32,2.32,0,0,0,3.27-.85,541.11,541.11,0,0,1,51.66-76.94,2.56,2.56,0,0,0-.73-3.84c-46.16-25.71-94.72-53.1-127-96.34a3.08,3.08,0,0,0-4.51-.51C1039.26,249.87,986.66,291.22,991.41,296.83Z"/><path class="cls-2" d="M1015.85,296.18Q1035.94,282,1054.61,266"/><path class="cls-2" d="M1043.55,290c-5.87,4.12-10.64,10.41-11.19,17.56-.1,1.26,0,2.72,1,3.47a4,4,0,0,0,2.11.59,39.43,39.43,0,0,0,36.74-20.08,11.81,11.81,0,0,0,1.57-4.39,7.2,7.2,0,0,0-3.82-7C1064.08,277.22,1048.49,286.57,1043.55,290Z"/><path class="cls-2" d="M1064.57,311.47c-5.28,4.82-9.49,11.17-10.35,18.26a2.17,2.17,0,0,0,.14,1.36c.4.7,1.35.77,2.15.74,15.77-.63,30.61-11.75,35.62-26.72a5.33,5.33,0,0,0,.38-2.69C1089.87,289.36,1068,308.38,1064.57,311.47Z"/><path class="cls-2" d="M1088,327.88c-5.92,4.25-12,9.62-12.84,16.86a3.08,3.08,0,0,0,2.32,3.9c5,1.84,10.68.24,15.46-2.19a47.27,47.27,0,0,0,22.66-25.56c.6-1.64,1.06-3.61,0-5a4.51,4.51,0,0,0-2.21-1.42C1105.21,311.67,1094.07,323.5,1088,327.88Z"/><path class="cls-2" d="M1107.14,352.25c-2.92,3.74-5.59,7.91-6.24,12.61a4.28,4.28,0,0,0,.16,2.33,4.45,4.45,0,0,0,3.23,2.11,26.74,26.74,0,0,0,11.74-.16,36.4,36.4,0,0,0,17.29-8.53c6.73-6.2,15.67-26.52.56-29.07C1124.44,329.94,1112.22,345.74,1107.14,352.25Z"/><path class="cls-1" d="M1166.85,1223.48c53.31,20,111,34.36,170.31,42.36,1.29.17,2.53-.45,2.7-1.36a277.54,277.54,0,0,1,20-61.93c.47-1-.5-2.12-2.05-2.26-51.74-5-106.31-10.37-151.53-30a3.84,3.84,0,0,0-4.34.8C1194.11,1181.63,1160.47,1221.08,1166.85,1223.48Z"/><path class="cls-2" d="M1189.14,1217a357.11,357.11,0,0,0,24.88-28.92"/><path class="cls-2" d="M1212.47,1206.19c-3.94,4.09-6.08,9.29-4,14a3.05,3.05,0,0,0,2.2,2,5.63,5.63,0,0,0,2.16-.15c14-3,24.83-11.91,26.65-21.93a5.71,5.71,0,0,0-.12-3.2c-.75-1.86-3.25-3.32-6-3.5C1226.78,1192.92,1215.77,1202.76,1212.47,1206.19Z"/><path class="cls-2" d="M1239.51,1214.65c-3.14,4.39-4.74,9.49-3,14.23a1.41,1.41,0,0,0,.61.83,3.18,3.18,0,0,0,2.25-.06c14.31-4.32,24-15.1,23.24-25.9a2.75,2.75,0,0,0-.62-1.81C1254.9,1194.26,1241.52,1211.84,1239.51,1214.65Z"/><path class="cls-2" d="M1267,1219.32c-3.93,4.18-7.64,9.12-5.79,13.94a2.66,2.66,0,0,0,1.34,1.58,5.12,5.12,0,0,0,2.2.34c5.3-.08,9.93-2.5,13.46-5.24,7.67-6,11.94-14,11.71-21.94a3.21,3.21,0,0,0-1.77-3.2,6.27,6.27,0,0,0-2.54-.36C1277,1204.69,1271,1215,1267,1219.32Z"/><path class="cls-2" d="M1293.36,1230.11c-1.35,3.11-2.31,6.43-1.23,9.59a2.68,2.68,0,0,0,1,1.45,6,6,0,0,0,3.74.54,34,34,0,0,0,10.76-3c5.39-2.43,10-5.74,12.87-9.74,4-5.63,4.93-20.81-9.91-18.69C1301.3,1211.57,1295.71,1224.69,1293.36,1230.11Z"/><path class="cls-3" d="M1182.25,113.15c-27,9.1-54.87,12-80.2,8.29a711.73,711.73,0,0,1-38.1,147.5,2,2,0,0,0,1.5,2.92c18.35,3.1,48.2,8.64,65.45,10.88,18.5,2.4,23.88-26.91,29.79-45.61C1164,226.72,1186.23,111.88,1182.25,113.15Z"/><path class="cls-2" d="M1079,259.41c18.83,2.86,32.68,4.5,51.72,4.92a4.57,4.57,0,0,0,5.52-3.85c14.81-41.87,22.44-85.86,29.91-129.64a.51.51,0,0,0-.79-.51c-5.56,3.58-30,5.86-33.63,6.15-4.68.38-14.36-1.6-18.39.28-4.24,2-3.68,7.55-4.42,11.88-4.2,24.46-7.11,48.56-15.49,71.92C1088.71,233.77,1085,246.74,1079,259.41Z"/></g></svg>