<svg id="소품" xmlns="http://www.w3.org/2000/svg" viewBox="0 0 1500 1500"><defs><style>.cls-1{fill:#f9dcd6;}.cls-2{fill:#c6aeaa;}.cls-3{fill:none;stroke:#000;stroke-miterlimit:10;stroke-width:7px;}</style></defs><title>소품2</title><g id="_2" data-name="2"><g id="색"><path class="cls-1" d="M857.54,504.41c12.24,1,49.52,2.45,61.44,5.4,16.92,4.18,31.19,16.13,48.22,19.83,22.34,4.85,45.54-5.22,68.23-2.39,23.73,3,44,19.62,67.74,22.75,11.7,1.55,24.47-.09,34.49,6.14,3.92,2.44,7.74,6.14,12.33,5.63,5.91-.67,8.59-7.68,9.48-13.57,4.84-32.05-7-66.15-30.61-88.33-8.14-7.65-17.85-14-28.78-16.33-6.95-1.46-14.19-1.22-21-3.05-12.68-3.39-22.88-13.52-35.73-16.14-15.36-3.12-31.46,5.08-46.7,1.42-10-2.38-18.24-9.57-28.2-11.89-9.7-2.27-19.8.32-29.76.3-31.69-.07-16.63-23.93-48.34-17.59"/><path class="cls-1" d="M559.55,488.42c-10.48-4.95-22.35,3.08-34,4.58-7.46,1-15-.87-22.44-1.68A83.62,83.62,0,0,0,458.2,499c-8.29,4-16.81,9.58-26,8.14-5.68-.89-10.72-4.44-16.47-4.66-7.11-.27-13.13,4.51-19.3,7.87-8.27,4.51-16.76,9.28-26.18,11-3.9.7-8.41-4.86-8.4-8.82A45.34,45.34,0,0,1,364.17,500c6.77-22.56,17.38-44.43,33.75-62s38.9-30.71,63.51-33.58c6.23-.72,12.62-.81,18.57-2.7,10.36-3.28,18.39-11.68,29-14.25,8.76-2.12,18.14.05,27-1.69,10.17-2,20.18-9.06,29.94-5.71"/><path class="cls-1" d="M761.35,374.39c13.75-8.45,12.27-6.3,27.49-11.62,19.89-7,29.92-6.3,50.77-9,8.62-1.13,20.19-.63,27.48,4.54,5.89,4.17,14.52,10.32,16.53,17.5,4,14.52,6.76,30.35,1.88,44.44-4.38,12.67-12.2,23.91-15.12,37.06-1.46,6.56,1.15,15.36,2,22,2.1,16.67-2.17,29.64-15.8,36.54-6.2,3.13-26.65,4.34-33.55,4.52-12.75.32-30.76-5.14-41.57-12.76-10.17-7.18-15.86-8.46-25.37-20.08"/><path class="cls-1" d="M686.91,370.91A132.88,132.88,0,0,0,635,335.69c-10.25-3.82-28.2-5.06-38.24-.74-11.12,4.78-26.12,11.83-28.23,23.75s.36,28.34-.07,40.44c-.94,26.43-11.69,32.92-14.68,59.2-.68,6,3.59,25.16,6.54,30.41,7.91,14.1,19.94,18.7,28.32,21.65s17.47-.29,26.26-1.62c22.07-3.34,43-9.37,57.78-26.09"/><path class="cls-1" d="M702.34,365.67c-3.82,0-7.32,0-10.69,2.57-3.9,3-6,7.66-7.29,13.72-6.79,31.82-8.71,50.57-11.63,83.44-.36,4-.66,8.36.62,11.93,1.86,5.23,6.35,7,10.38,8.12a163.72,163.72,0,0,0,66.87,4.41c2-.28,4-.65,5.64-2.32,2-2,2.85-5.49,3.53-8.78,3.58-17.42,7.56-83.41.65-98.36C752,362.14,719.36,365.83,702.34,365.67Z"/></g><path class="cls-2" d="M535.76,489c6-5,15-4.12,22-.73s12.68,8.88,19.21,13.06c12.7,8.13,28.49,11.05,43.4,8.78a74.59,74.59,0,0,0,39.78-20c3.27-3.13,6.52-6.68,10.9-7.81,3.3-.85,6.77-.19,10.11.47,5.3,1,10.94,2.15,16.12,3.69a86.42,86.42,0,0,0,41.35,1.9,51.55,51.55,0,0,1,7.88-1.28c4.57-.21,9.07,1.16,13.25,3,14,6.18,25.13,17.66,39.22,23.56,10.76,4.5,22.61,5.49,34.23,6.42a51,51,0,0,0,9.88.16,32.71,32.71,0,0,0,9.28-2.58c6.58-2.84,13.46-7.47,17.95-13.06a142.73,142.73,0,0,1,86.12,17.86c4.17,2.39,8.39,5,13.16,5.68,3.35.43,6.75-.17,10.1-.65,11.52-1.64,23.19-1.74,34.82-1.83,12-.09,24.25-.15,35.59,3.75,10.43,3.59,19.51,10.34,29.84,14.17,16.07,6,34.34,4.6,49.92,11.75,6.61,3,14,7.63,20.55,4.55,5.29-2.48,7.32-8.82,8.8-14.47.81-3,1.61-6.27.79-9.32-1.38-5.16-6.79-8-11.8-9.85-16.58-6-22.78-10.62-40.25-13.13-16-2.29-50.79.81-66.36-3.38-18.73-5-42.36-20.94-61.1-25.93-46.82-12.48-83.3,7.49-131.08-9.32-44.14-15.54-93-5.34-139.27-12.11-26.32-3.85-39.72-21.49-63.65-9.89-9.1,4.41-31.89,24.61-41.11,28.74s-20.64,5.54-29-.13c-3.68-2.5-6.43-6.14-9.85-9-10.46-8.68-25.39-8.75-39-8.15-54.09,2.37-110,9-156.47,36.76-5.15,3.07-10.85,8.89-7.86,14.07s10.76,3.2,16.11.6L411,499.9c8.07-3.92,16.38,6.05,25.29,5,5.08-.6,9.48-3.63,14-6.11,22-12.19,48.41-7.86,73.52-7.45C527.4,491.4,532.16,488.41,535.76,489Z"/><g id="선"><path class="cls-3" d="M869.17,504.41c12.23,1,37.89,2.45,49.81,5.4,16.92,4.18,31.19,16.13,48.22,19.83,22.34,4.85,45.54-5.22,68.23-2.39,23.73,3,44,19.62,67.74,22.75,11.7,1.55,24.47-.09,34.49,6.14,3.92,2.44,7.74,6.14,12.33,5.63,5.91-.67,8.59-7.68,9.48-13.57,4.84-32.05-7-66.15-30.61-88.33-8.14-7.65-17.85-14-28.78-16.33-6.95-1.46-14.19-1.22-21-3.05-12.68-3.39-22.88-13.52-35.73-16.14-15.36-3.12-31.46,5.08-46.7,1.42-10-2.38-18.24-9.57-28.2-11.89-9.7-2.27-19.8.32-29.76.3-31.69-.07-16.63-23.93-48.34-17.59"/><path class="cls-3" d="M559.55,488.42c-10.48-4.95-22.35,3.08-34,4.58-7.46,1-15-.87-22.44-1.68A83.62,83.62,0,0,0,458.2,499c-8.29,4-16.81,9.58-26,8.14-5.68-.89-10.72-4.44-16.47-4.66-7.11-.27-13.13,4.51-19.3,7.87-8.27,4.51-16.76,9.28-26.18,11-3.9.7-8.41-4.86-8.4-8.82A45.34,45.34,0,0,1,364.17,500c6.77-22.56,17.38-44.43,33.75-62s38.9-30.71,63.51-33.58c6.23-.72,12.62-.81,18.57-2.7,10.36-3.28,18.39-11.68,29-14.25,8.76-2.12,18.14.05,27-1.69,10.17-2,20.18-9.06,29.94-5.71"/><path class="cls-3" d="M761.35,374.39c13.75-8.45,12.27-6.3,27.49-11.62,19.89-7,29.92-6.3,50.77-9,8.62-1.13,20.19-.63,27.48,4.54,5.89,4.17,14.52,10.32,16.53,17.5,4,14.52,6.76,30.35,1.88,44.44-4.38,12.67-12.2,23.91-15.12,37.06-1.46,6.56,1.15,15.36,2,22,2.1,16.67-2.17,29.64-15.8,36.54-6.2,3.13-26.65,4.34-33.55,4.52-12.75.32-30.76-5.14-41.57-12.76-10.17-7.18-15.86-8.46-25.37-20.08"/><path class="cls-3" d="M686.91,370.91A132.88,132.88,0,0,0,635,335.69c-10.25-3.82-28.2-5.06-38.24-.74-11.12,4.78-26.12,11.83-28.23,23.75s.36,28.34-.07,40.44c-.94,26.43-11.69,32.92-14.68,59.2-.68,6,3.59,25.16,6.54,30.41,7.91,14.1,19.94,18.7,28.32,21.65s17.47-.29,26.26-1.62c22.07-3.34,43-9.37,57.78-26.09"/><path class="cls-3" d="M702.34,365.67c-3.82,0-7.32,0-10.69,2.57-3.9,3-6,7.66-7.29,13.72-6.79,31.82-8.71,50.57-11.63,83.44-.36,4-.66,8.36.62,11.93,1.86,5.23,6.35,7,10.38,8.12a163.72,163.72,0,0,0,66.87,4.41c2-.28,4-.65,5.64-2.32,2-2,2.85-5.49,3.53-8.78,3.58-17.42,7.56-83.41.65-98.36C752,362.14,719.36,365.83,702.34,365.67Z"/></g></g></svg>