<svg id="소품" xmlns="http://www.w3.org/2000/svg" viewBox="0 0 1500 1500"><defs><style>.cls-1{fill:#fff;}.cls-2{fill:none;stroke:#000;stroke-linecap:round;stroke-linejoin:round;stroke-width:7px;}</style></defs><title>소품3</title><g id="_3" data-name="3"><path class="cls-1" d="M1010.24,787.9a75.12,75.12,0,0,0-36,6,6.88,6.88,0,0,0-3.47,2.56,7.1,7.1,0,0,0-.61,3.66q.06,7.27.17,14.54c.06,3.56.14,7.24,1.7,10.44,3,6.22,10.45,8.69,17.12,10.54,4.67,1.3,10.21,2.42,13.91-.7a13.3,13.3,0,0,0,3.51-5.79,61.18,61.18,0,0,0,.4-41.1"/><path class="cls-1" d="M1031,678.31c-3.73-.14-7.93-.45-10.68,2.07s-2.83,6.35-2.52,9.86a52.56,52.56,0,0,0,8.12,23.79c3.19,5,7.95,9.75,13.85,9.83,4.68.07,9-3,11.48-7s3.34-8.74,3.63-13.41c.35-5.69,1.65-21.14-3.26-25.18C1047.32,674.79,1036.06,678.5,1031,678.31Z"/><path class="cls-2" d="M974,794c-6.53,14.57-5.16,28.8,6.22,40,1.59,1.57,6.56,5.15,8.72,5.73,4.06,1.09,10.36.88,13.58-1.82,13.42-11.23,15.67-31.1,9.8-47.58"/><path class="cls-2" d="M1020.85,681.13a46.49,46.49,0,0,0-.65,27c1.57,5.63,4.39,11.15,9.13,14.57s11.67,4.22,16.38.76c3.69-2.7,5.38-7.32,6.47-11.76a76.46,76.46,0,0,0,.35-34.8"/></g></svg>